Rusch-GoticoAntiqua100G.ufo
<glyph name="ampersand" format="1">
  <advance width="749"/>
  <unicode hex="0026"/>
  <outline>
    <contour>
      <point x="346" y="391" type="curve"/>
      <point x="307" y="394" type="line"/>
      <point x="323" y="434"/>
      <point x="331" y="512"/>
      <point x="311" y="542" type="curve"/>
      <point x="301" y="559"/>
      <point x="248" y="566"/>
      <point x="210" y="557" type="curve"/>
      <point x="204" y="519"/>
      <point x="203" y="475"/>
      <point x="203" y="450" type="curve"/>
      <point x="172" y="445" type="line"/>
      <point x="167" y="466"/>
      <point x="158" y="544"/>
      <point x="148" y="594" type="curve"/>
      <point x="160" y="616"/>
      <point x="173" y="632"/>
      <point x="185" y="644" type="curve"/>
      <point x="250" y="636"/>
      <point x="328" y="629"/>
      <point x="380" y="625" type="curve"/>
      <point x="390" y="531"/>
      <point x="353" y="437"/>
    </contour>
    <contour>
      <point x="10" y="205" type="curve"/>
      <point x="10" y="315"/>
      <point x="106" y="416"/>
      <point x="181" y="466" type="curve"/>
      <point x="298" y="438"/>
      <point x="340" y="426"/>
      <point x="406" y="387" type="curve"/>
      <point x="445" y="363"/>
      <point x="488" y="323"/>
      <point x="533" y="269" type="curve"/>
      <point x="586" y="325"/>
      <point x="625" y="382"/>
      <point x="643" y="409" type="curve"/>
      <point x="614" y="431"/>
      <point x="586" y="446"/>
      <point x="557" y="456" type="curve"/>
      <point x="580" y="475"/>
      <point x="601" y="499"/>
      <point x="626" y="522" type="curve"/>
      <point x="746" y="469" type="line"/>
      <point x="746" y="462"/>
      <point x="627" y="316"/>
      <point x="559" y="239" type="curve"/>
      <point x="585" y="206"/>
      <point x="620" y="171"/>
      <point x="655" y="134" type="curve"/>
      <point x="678" y="109"/>
      <point x="697" y="114"/>
      <point x="716" y="121" type="curve"/>
      <point x="731" y="92" type="line"/>
      <point x="590" y="-10" type="line"/>
      <point x="545" y="56"/>
      <point x="511" y="106"/>
      <point x="480" y="147" type="curve"/>
      <point x="401" y="76"/>
      <point x="337" y="28"/>
      <point x="283" y="-10" type="curve"/>
      <point x="121" y="-13"/>
      <point x="10" y="52"/>
    </contour>
    <contour>
      <point x="75" y="245" type="curve"/>
      <point x="75" y="152"/>
      <point x="178" y="91"/>
      <point x="270" y="91" type="curve"/>
      <point x="353" y="91"/>
      <point x="407" y="125"/>
      <point x="457" y="180" type="curve"/>
      <point x="377" y="314"/>
      <point x="306" y="362"/>
      <point x="162" y="368" type="curve"/>
      <point x="106" y="338"/>
      <point x="75" y="294"/>
    </contour>
  </outline>
</glyph>
<glyph name="hyphen" format="1">
  <advance width="208"/>
  <unicode hex="002D"/>
  <outline>
    <contour>
      <point x="178" y="155" type="line"/>
      <point x="20" y="49" type="line"/>
      <point x="22" y="21" type="line"/>
      <point x="31" y="21" type="line"/>
      <point x="178" y="92" type="line"/>
      <point x="188" y="155" type="line"/>
    </contour>
    <contour>
      <point x="173" y="295" type="line"/>
      <point x="23" y="178" type="line"/>
      <point x="27" y="150" type="line"/>
      <point x="36" y="151" type="line"/>
      <point x="178" y="232" type="line"/>
      <point x="183" y="295" type="line"/>
    </contour>
  </outline>
</glyph>
<glyph name="period" format="1">
  <advance width="211"/>
  <unicode hex="002E"/>
  <outline>
    <contour>
      <point x="111" y="148" type="curve"/>
      <point x="85" y="132"/>
      <point x="51" y="104"/>
      <point x="28" y="76" type="curve"/>
      <point x="48" y="46"/>
      <point x="82" y="10"/>
      <point x="101" y="-10" type="curve"/>
      <point x="131" y="11"/>
      <point x="158" y="38"/>
      <point x="183" y="64" type="curve"/>
      <point x="163" y="94"/>
      <point x="141" y="124"/>
    </contour>
  </outline>
</glyph>
<glyph name="question" format="1">
  <advance width="418"/>
  <unicode hex="003F"/>
  <outline>
    <contour>
      <point x="286" y="702" type="curve"/>
      <point x="208" y="642" type="line"/>
      <point x="208" y="622" type="line"/>
      <point x="262" y="616"/>
      <point x="317" y="601"/>
      <point x="371" y="575" type="curve"/>
      <point x="380" y="534"/>
      <point x="345" y="494"/>
      <point x="269" y="494" type="curve"/>
      <point x="105" y="494" type="line"/>
      <point x="49" y="457"/>
      <point x="10" y="410"/>
      <point x="10" y="359" type="curve"/>
      <point x="10" y="315"/>
      <point x="33" y="260"/>
      <point x="96" y="217" type="curve"/>
      <point x="163" y="259" type="line"/>
      <point x="163" y="270" type="line"/>
      <point x="107" y="305"/>
      <point x="59" y="367"/>
      <point x="75" y="425" type="curve"/>
      <point x="163" y="442"/>
      <point x="248" y="434"/>
      <point x="317" y="425" type="curve"/>
      <point x="368" y="442"/>
      <point x="408" y="487"/>
      <point x="408" y="560" type="curve"/>
      <point x="408" y="639"/>
      <point x="370" y="670"/>
    </contour>
    <component base="period" xOffset="11"/>
  </outline>
</glyph>
<glyph name="A" format="1">
  <advance width="677"/>
  <unicode hex="0041"/>
  <outline>
    <contour>
      <point x="494" y="329" type="line"/>
      <point x="163" y="329" type="line"/>
      <point x="163" y="284" type="line"/>
      <point x="499" y="284" type="line"/>
    </contour>
    <contour>
      <point x="108" y="74" type="curve"/>
      <point x="108" y="112"/>
      <point x="239" y="414"/>
      <point x="339" y="630" type="curve"/>
      <point x="307" y="593" type="line"/>
      <point x="424" y="333"/>
      <point x="511" y="127"/>
      <point x="511" y="76" type="curve"/>
      <point x="511" y="48"/>
      <point x="491" y="39"/>
      <point x="431" y="25" type="curve"/>
      <point x="431" y="0" type="line"/>
      <point x="431" y="0"/>
      <point x="672" y="1"/>
      <point x="672" y="0" type="curve"/>
      <point x="672" y="25" type="line"/>
      <point x="638" y="60"/>
      <point x="398" y="629"/>
      <point x="382" y="700" type="curve"/>
      <point x="293" y="700" type="line"/>
      <point x="276" y="616"/>
      <point x="105" y="250"/>
      <point x="6" y="25" type="curve"/>
      <point x="5" y="0" type="line"/>
      <point x="5" y="0"/>
      <point x="187" y="0"/>
      <point x="187" y="0" type="curve"/>
      <point x="187" y="21" type="line"/>
      <point x="119" y="50"/>
      <point x="108" y="52"/>
    </contour>
    <contour>
      <point x="339" y="0" type="move" name="bottom"/>
    </contour>
    <contour>
      <point x="609" y="10" type="move" name="ogonek"/>
    </contour>
    <contour>
      <point x="339" y="700" type="move" name="top"/>
    </contour>
  </outline>
</glyph>
<glyph name="B" format="1">
  <advance width="655"/>
  <unicode hex="0042"/>
  <outline>
    <contour>
      <point x="45" y="-6" type="curve"/>
      <point x="44" y="19" type="line"/>
      <point x="105" y="37"/>
      <point x="116" y="62"/>
      <point x="116" y="105" type="curve"/>
      <point x="116" y="196"/>
      <point x="119" y="490"/>
      <point x="116" y="584" type="curve"/>
      <point x="113" y="665"/>
      <point x="87" y="656"/>
      <point x="20" y="685" type="curve"/>
      <point x="23" y="710" type="line"/>
      <point x="142" y="698"/>
      <point x="205" y="711"/>
      <point x="338" y="711" type="curve"/>
      <point x="518" y="711"/>
      <point x="600" y="644"/>
      <point x="600" y="551" type="curve"/>
      <point x="600" y="456"/>
      <point x="497" y="406"/>
      <point x="433" y="377" type="curve"/>
      <point x="540" y="347"/>
      <point x="630" y="286"/>
      <point x="630" y="171" type="curve"/>
      <point x="630" y="19"/>
      <point x="475" y="-6"/>
      <point x="342" y="-6" type="curve"/>
      <point x="249" y="-6"/>
      <point x="124" y="9"/>
    </contour>
    <contour>
      <point x="222" y="661" type="curve"/>
      <point x="222" y="47" type="line"/>
      <point x="416" y="8"/>
      <point x="528" y="46"/>
      <point x="528" y="188" type="curve"/>
      <point x="528" y="307"/>
      <point x="421" y="362"/>
      <point x="214" y="337" type="curve"/>
      <point x="212" y="385" type="line"/>
      <point x="302" y="381" type="line" smooth="yes"/>
      <point x="431" y="375"/>
      <point x="490" y="447"/>
      <point x="490" y="530" type="curve"/>
      <point x="490" y="631"/>
      <point x="420" y="674"/>
      <point x="316" y="674" type="curve"/>
      <point x="286" y="674"/>
      <point x="253" y="669"/>
    </contour>
    <contour>
      <point x="323" y="0" type="move" name="bottom"/>
    </contour>
    <contour>
      <point x="323" y="700" type="move" name="top"/>
    </contour>
  </outline>
</glyph>
<glyph name="C" format="1">
  <advance width="696"/>
  <unicode hex="0043"/>
  <outline>
    <contour>
      <point x="686" y="521" type="line"/>
      <point x="656" y="521" type="line"/>
      <point x="603" y="610"/>
      <point x="548" y="668"/>
      <point x="413" y="668" type="curve"/>
      <point x="237" y="668"/>
      <point x="135" y="529"/>
      <point x="135" y="355" type="curve"/>
      <point x="135" y="153"/>
      <point x="224" y="29"/>
      <point x="398" y="29" type="curve"/>
      <point x="512" y="29"/>
      <point x="603" y="61"/>
      <point x="647" y="164" type="curve"/>
      <point x="676" y="163" type="line"/>
      <point x="669" y="98"/>
      <point x="654" y="7"/>
      <point x="654" y="7" type="curve"/>
      <point x="569" y="3"/>
      <point x="484" y="-9"/>
      <point x="410" y="-9" type="curve"/>
      <point x="200" y="-9"/>
      <point x="20" y="92"/>
      <point x="20" y="355" type="curve"/>
      <point x="20" y="536"/>
      <point x="158" y="708"/>
      <point x="422" y="708" type="curve"/>
      <point x="503" y="708"/>
      <point x="601" y="691"/>
      <point x="682" y="689" type="curve"/>
    </contour>
    <contour>
      <point x="348" y="0" type="move" name="bottom"/>
    </contour>
    <contour>
      <point x="348" y="700" type="move" name="top"/>
    </contour>
  </outline>
</glyph>
<glyph name="D" format="1">
  <advance width="818"/>
  <unicode hex="0044"/>
  <outline>
    <contour>
      <point x="126" y="593" type="curve"/>
      <point x="135" y="440"/>
      <point x="129" y="223"/>
      <point x="124" y="35" type="curve"/>
      <point x="124" y="35"/>
      <point x="37" y="29"/>
      <point x="37" y="29" type="curve"/>
      <point x="37" y="-6" type="line"/>
      <point x="37" y="-6"/>
      <point x="93" y="0"/>
      <point x="250" y="-5" type="curve"/>
      <point x="581" y="-16"/>
      <point x="798" y="96"/>
      <point x="798" y="356" type="curve"/>
      <point x="798" y="607"/>
      <point x="577" y="700"/>
      <point x="302" y="700" type="curve"/>
      <point x="189" y="700"/>
      <point x="113" y="700"/>
      <point x="30" y="718" type="curve"/>
      <point x="20" y="689" type="line"/>
      <point x="93" y="668"/>
      <point x="123" y="646"/>
    </contour>
    <contour>
      <point x="680" y="342" type="curve"/>
      <point x="680" y="73"/>
      <point x="482" y="11"/>
      <point x="241" y="36" type="curve"/>
      <point x="235" y="199"/>
      <point x="231" y="439"/>
      <point x="245" y="651" type="curve"/>
      <point x="506" y="696"/>
      <point x="680" y="600"/>
    </contour>
    <contour>
      <point x="423" y="0" type="move" name="bottom"/>
    </contour>
    <contour>
      <point x="423" y="350" type="move" name="center"/>
    </contour>
    <contour>
      <point x="423" y="700" type="move" name="top"/>
    </contour>
  </outline>
</glyph>
<glyph name="G" format="1">
  <advance width="699"/>
  <unicode hex="0047"/>
  <outline>
    <contour>
      <point x="98" y="379" type="curve"/>
      <point x="106" y="315" type="line"/>
      <point x="154" y="356"/>
      <point x="283" y="418"/>
      <point x="397" y="421" type="curve"/>
      <point x="500" y="424"/>
      <point x="611" y="370"/>
      <point x="611" y="249" type="curve"/>
      <point x="611" y="137"/>
      <point x="519" y="50"/>
      <point x="401" y="50" type="curve"/>
      <point x="242" y="50"/>
      <point x="124" y="153"/>
      <point x="125" y="355" type="curve"/>
      <point x="126" y="550"/>
      <point x="234" y="626"/>
      <point x="283" y="626" type="curve"/>
      <point x="342" y="626"/>
      <point x="480" y="619"/>
      <point x="532" y="599" type="curve"/>
      <point x="653" y="661" type="line"/>
      <point x="652" y="679" type="line"/>
      <point x="572" y="687"/>
      <point x="464" y="710"/>
      <point x="403" y="710" type="curve"/>
      <point x="255" y="710"/>
      <point x="14" y="558"/>
      <point x="14" y="316" type="curve"/>
      <point x="14" y="131"/>
      <point x="124" y="-20"/>
      <point x="366" y="-16" type="curve"/>
      <point x="525" y="-13"/>
      <point x="669" y="114"/>
      <point x="669" y="290" type="curve"/>
      <point x="669" y="459"/>
      <point x="561" y="523"/>
      <point x="459" y="526" type="curve"/>
      <point x="359" y="485"/>
      <point x="197" y="410"/>
    </contour>
    <contour>
      <point x="371" y="0" type="move" name="bottom"/>
    </contour>
    <contour>
      <point x="371" y="700" type="move" name="top"/>
    </contour>
  </outline>
</glyph>
<glyph name="I" format="1">
  <advance width="331"/>
  <unicode hex="0049"/>
  <outline>
    <contour>
      <point x="29" y="30" type="curve"/>
      <point x="29" y="0" type="line"/>
      <point x="304" y="0" type="line"/>
      <point x="304" y="30" type="line"/>
      <point x="258" y="41"/>
      <point x="240" y="54"/>
      <point x="238" y="80" type="curve"/>
      <point x="230" y="182"/>
      <point x="236" y="523"/>
      <point x="242" y="631" type="curve"/>
      <point x="243" y="650"/>
      <point x="267" y="661"/>
      <point x="306" y="670" type="curve"/>
      <point x="306" y="700" type="line"/>
      <point x="15" y="700" type="line"/>
      <point x="15" y="670" type="line"/>
      <point x="116" y="655"/>
      <point x="129" y="644"/>
      <point x="131" y="613" type="curve"/>
      <point x="137" y="514"/>
      <point x="134" y="181"/>
      <point x="129" y="85" type="curve"/>
      <point x="127" y="50"/>
      <point x="108" y="42"/>
    </contour>
    <contour>
      <point x="164" y="313" type="line"/>
      <point x="140" y="438" type="line"/>
      <point x="127" y="362"/>
      <point x="108" y="339"/>
      <point x="45" y="321" type="curve"/>
      <point x="52" y="295" type="line"/>
    </contour>
    <contour>
      <point x="174" y="0" type="move" name="bottom"/>
    </contour>
    <contour>
      <point x="300" y="10" type="move" name="ogonek"/>
    </contour>
    <contour>
      <point x="177" y="700" type="move" name="top"/>
    </contour>
    <contour>
      <point x="35" y="700" type="move" name="topleft"/>
    </contour>
  </outline>
</glyph>
<glyph name="J" format="1">
  <advance width="416"/>
  <unicode hex="004A"/>
  <outline>
    <contour>
      <point x="82" y="703" type="curve"/>
      <point x="82" y="671" type="line"/>
      <point x="178" y="656"/>
      <point x="198" y="644"/>
      <point x="198" y="603" type="curve"/>
      <point x="198" y="125" type="line" smooth="yes"/>
      <point x="198" y="-62"/>
      <point x="99" y="-118"/>
      <point x="15" y="-118" type="curve"/>
      <point x="24" y="-150" type="line"/>
      <point x="141" y="-150"/>
      <point x="301" y="-95"/>
      <point x="301" y="125" type="curve"/>
      <point x="301" y="219"/>
      <point x="302" y="445"/>
      <point x="302" y="628" type="curve"/>
      <point x="302" y="659"/>
      <point x="312" y="658"/>
      <point x="366" y="672" type="curve"/>
      <point x="366" y="703" type="line"/>
      <point x="307" y="700"/>
      <point x="142" y="700"/>
    </contour>
  </outline>
</glyph>
<glyph name="K" format="1">
  <advance width="722"/>
  <unicode hex="004B"/>
  <outline>
    <contour>
      <point x="185" y="2" type="curve"/>
      <point x="25" y="1" type="line"/>
      <point x="25" y="28" type="line"/>
      <point x="63" y="38"/>
      <point x="73" y="58"/>
      <point x="74" y="86" type="curve"/>
      <point x="76" y="144"/>
      <point x="87" y="532"/>
      <point x="76" y="607" type="curve"/>
      <point x="73" y="628"/>
      <point x="74" y="667"/>
      <point x="32" y="678" type="curve"/>
      <point x="32" y="701" type="line"/>
      <point x="185" y="701" type="line"/>
      <point x="177" y="468"/>
      <point x="177" y="235"/>
    </contour>
    <contour>
      <point x="159" y="305" type="curve"/>
      <point x="142" y="332" type="line"/>
      <point x="281" y="394"/>
      <point x="410" y="487"/>
      <point x="469" y="699" type="curve"/>
      <point x="693" y="700" type="line"/>
      <point x="693" y="674" type="line"/>
      <point x="642" y="666"/>
      <point x="587" y="653"/>
      <point x="538" y="585" type="curve"/>
      <point x="454" y="469"/>
      <point x="326" y="391"/>
    </contour>
    <contour>
      <point x="143" y="305" type="curve"/>
      <point x="271" y="383" type="line"/>
      <point x="524" y="380"/>
      <point x="534" y="250"/>
      <point x="638" y="85" type="curve"/>
      <point x="657" y="55"/>
      <point x="676" y="34"/>
      <point x="722" y="30" type="curve"/>
      <point x="722" y="0" type="line"/>
      <point x="551" y="0" type="line"/>
      <point x="460" y="219"/>
      <point x="352" y="360"/>
    </contour>
  </outline>
</glyph>
<glyph name="L" format="1">
  <advance width="661"/>
  <unicode hex="004C"/>
  <outline>
    <contour>
      <point x="40" y="700" type="line"/>
      <point x="40" y="670" type="line"/>
      <point x="79" y="661"/>
      <point x="103" y="650"/>
      <point x="104" y="631" type="curve"/>
      <point x="110" y="523"/>
      <point x="116" y="182"/>
      <point x="108" y="80" type="curve"/>
      <point x="106" y="54"/>
      <point x="95" y="46"/>
      <point x="39" y="25" type="curve"/>
      <point x="42" y="-2" type="line"/>
      <point x="242" y="7"/>
      <point x="443" y="4"/>
      <point x="643" y="-1" type="curve"/>
      <point x="636" y="93"/>
      <point x="647" y="162"/>
      <point x="652" y="237" type="curve"/>
      <point x="622" y="238" type="line"/>
      <point x="619" y="119"/>
      <point x="580" y="84"/>
      <point x="460" y="77" type="curve"/>
      <point x="181" y="60" type="line"/>
      <point x="228" y="52" type="line"/>
      <point x="211" y="32"/>
      <point x="218" y="529"/>
      <point x="223" y="613" type="curve"/>
      <point x="225" y="644"/>
      <point x="238" y="655"/>
      <point x="311" y="670" type="curve"/>
      <point x="311" y="700" type="line"/>
    </contour>
    <contour>
      <point x="331" y="0" type="move" name="bottom"/>
    </contour>
    <contour>
      <point x="331" y="350" type="move" name="center"/>
    </contour>
    <contour>
      <point x="331" y="700" type="move" name="top"/>
    </contour>
    <contour>
      <point x="641" y="700" type="move" name="topright"/>
    </contour>
  </outline>
</glyph>
<glyph name="M" format="1">
  <advance width="1053"/>
  <unicode hex="004D"/>
  <outline>
    <contour>
      <point x="25" y="30" type="curve"/>
      <point x="25" y="0" type="line"/>
      <point x="298" y="0" type="line"/>
      <point x="298" y="30" type="line"/>
      <point x="175" y="39"/>
      <point x="182" y="50"/>
      <point x="180" y="95" type="curve"/>
      <point x="175" y="181"/>
      <point x="172" y="533"/>
      <point x="178" y="622" type="curve"/>
      <point x="264" y="498"/>
      <point x="462" y="178"/>
      <point x="498" y="39" type="curve"/>
      <point x="539" y="39" type="line"/>
      <point x="577" y="172"/>
      <point x="751" y="483"/>
      <point x="841" y="631" type="curve"/>
      <point x="847" y="532"/>
      <point x="844" y="181"/>
      <point x="839" y="85" type="curve"/>
      <point x="837" y="50"/>
      <point x="818" y="42"/>
      <point x="721" y="30" type="curve"/>
      <point x="721" y="0" type="line"/>
      <point x="1028" y="0" type="line"/>
      <point x="1028" y="30" type="line"/>
      <point x="972" y="41"/>
      <point x="954" y="54"/>
      <point x="952" y="80" type="curve"/>
      <point x="944" y="182"/>
      <point x="950" y="523"/>
      <point x="955" y="611" type="curve"/>
      <point x="957" y="650"/>
      <point x="968" y="655"/>
      <point x="1020" y="670" type="curve"/>
      <point x="1020" y="700" type="line"/>
      <point x="1019" y="700" type="line"/>
      <point x="1019" y="701" type="line"/>
      <point x="644" y="701" type="line"/>
      <point x="644" y="671" type="line"/>
      <point x="770" y="650"/>
      <point x="779" y="627"/>
      <point x="759" y="589" type="curve"/>
      <point x="532" y="161" type="line"/>
      <point x="566" y="194" type="line"/>
      <point x="326" y="602" type="line" smooth="yes"/>
      <point x="315" y="621"/>
      <point x="283" y="659"/>
      <point x="409" y="670" type="curve"/>
      <point x="409" y="700" type="line"/>
      <point x="32" y="701" type="line"/>
      <point x="32" y="671" type="line"/>
      <point x="69" y="663"/>
      <point x="115" y="660"/>
      <point x="117" y="631" type="curve"/>
      <point x="124" y="523"/>
      <point x="130" y="182"/>
      <point x="122" y="90" type="curve"/>
      <point x="119" y="54"/>
      <point x="108" y="45"/>
    </contour>
    <contour>
      <point x="521" y="0" type="move" name="bottom"/>
    </contour>
    <contour>
      <point x="521" y="700" type="move" name="top"/>
    </contour>
  </outline>
</glyph>
<glyph name="N" format="1">
  <advance width="891"/>
  <unicode hex="004E"/>
  <outline>
    <contour>
      <point x="732" y="80" type="curve"/>
      <point x="657" y="120"/>
      <point x="338" y="653"/>
      <point x="295" y="700" type="curve"/>
      <point x="84" y="701" type="line"/>
      <point x="84" y="671" type="line"/>
      <point x="109" y="666"/>
      <point x="147" y="660"/>
      <point x="149" y="631" type="curve"/>
      <point x="156" y="523"/>
      <point x="162" y="182"/>
      <point x="154" y="90" type="curve"/>
      <point x="151" y="54"/>
      <point x="140" y="45"/>
      <point x="77" y="30" type="curve"/>
      <point x="77" y="0" type="line"/>
      <point x="329" y="0" type="line"/>
      <point x="329" y="30" type="line"/>
      <point x="206" y="39"/>
      <point x="213" y="50"/>
      <point x="211" y="95" type="curve"/>
      <point x="207" y="181"/>
      <point x="199" y="520"/>
      <point x="206" y="609" type="curve"/>
      <point x="287" y="550"/>
      <point x="542" y="119"/>
      <point x="632" y="0" type="curve"/>
      <point x="858" y="0" type="line"/>
      <point x="858" y="30" type="line"/>
      <point x="822" y="38"/>
      <point x="795" y="41"/>
      <point x="792" y="80" type="curve"/>
      <point x="784" y="178"/>
      <point x="780" y="519"/>
      <point x="788" y="611" type="curve"/>
      <point x="791" y="647"/>
      <point x="802" y="659"/>
      <point x="865" y="674" type="curve"/>
      <point x="865" y="700" type="line"/>
      <point x="612" y="700" type="line"/>
      <point x="612" y="670" type="line"/>
      <point x="735" y="661"/>
      <point x="727" y="650"/>
      <point x="730" y="605" type="curve"/>
      <point x="736" y="519"/>
      <point x="738" y="169"/>
    </contour>
    <contour>
      <point x="-122" y="255" type="move"/>
      <point x="-122" y="257"/>
      <point x="-122" y="258"/>
      <point x="-122" y="259" type="curve"/>
    </contour>
    <contour>
      <point x="446" y="0" type="move" name="bottom"/>
    </contour>
    <contour>
      <point x="446" y="700" type="move" name="top"/>
    </contour>
  </outline>
</glyph>
<glyph name="P" format="1">
  <advance width="661"/>
  <unicode hex="0050"/>
  <outline>
    <contour>
      <point x="238" y="648" type="curve"/>
      <point x="224" y="426"/>
      <point x="234" y="228"/>
      <point x="234" y="65" type="curve"/>
      <point x="234" y="34"/>
      <point x="259" y="38"/>
      <point x="357" y="25" type="curve"/>
      <point x="358" y="-5" type="line"/>
      <point x="229" y="0"/>
      <point x="153" y="0"/>
      <point x="68" y="-5" type="curve"/>
      <point x="68" y="25" type="line"/>
      <point x="113" y="33"/>
      <point x="125" y="35"/>
      <point x="126" y="66" type="curve"/>
      <point x="131" y="223"/>
      <point x="136" y="430"/>
      <point x="127" y="583" type="curve"/>
      <point x="124" y="636"/>
      <point x="98" y="658"/>
      <point x="25" y="679" type="curve"/>
      <point x="31" y="708" type="line"/>
      <point x="78" y="702"/>
      <point x="127" y="700"/>
      <point x="199" y="700" type="curve"/>
      <point x="256" y="700"/>
      <point x="328" y="702"/>
      <point x="396" y="702" type="curve"/>
      <point x="464" y="702"/>
      <point x="651" y="689"/>
      <point x="651" y="510" type="curve"/>
      <point x="651" y="300"/>
      <point x="439" y="268"/>
      <point x="218" y="268" type="curve"/>
      <point x="218" y="309" type="line"/>
      <point x="400" y="309"/>
      <point x="546" y="348"/>
      <point x="546" y="492" type="curve"/>
      <point x="546" y="660"/>
      <point x="412" y="664"/>
      <point x="354" y="664" type="curve"/>
      <point x="307" y="664"/>
      <point x="286" y="659"/>
    </contour>
    <contour>
      <point x="365" y="0" type="move" name="bottom"/>
    </contour>
    <contour>
      <point x="365" y="700" type="move" name="top"/>
    </contour>
  </outline>
</glyph>
<glyph name="Q" format="1">
  <advance width="769"/>
  <unicode hex="0051"/>
  <outline>
    <contour>
      <point x="24" y="341" type="curve"/>
      <point x="24" y="196"/>
      <point x="107" y="99"/>
      <point x="213" y="30" type="curve"/>
      <point x="270" y="-7"/>
      <point x="416" y="-76"/>
      <point x="445" y="-87" type="curve"/>
      <point x="547" y="-80"/>
      <point x="627" y="-68"/>
      <point x="693" y="-67" type="curve"/>
      <point x="817" y="-66"/>
      <point x="852" y="-107"/>
      <point x="814" y="-164" type="curve"/>
      <point x="840" y="-172" type="line"/>
      <point x="852" y="-142"/>
      <point x="894" y="-107"/>
      <point x="894" y="-77" type="curve"/>
      <point x="894" y="-33"/>
      <point x="813" y="-2"/>
      <point x="698" y="-2" type="curve"/>
      <point x="622" y="-2"/>
      <point x="560" y="-15"/>
      <point x="501" y="-15" type="curve"/>
      <point x="481" y="-15"/>
      <point x="462" y="-14"/>
      <point x="444" y="-9" type="curve"/>
      <point x="622" y="16"/>
      <point x="771" y="180"/>
      <point x="771" y="361" type="curve"/>
      <point x="771" y="576"/>
      <point x="602" y="711"/>
      <point x="399" y="711" type="curve"/>
      <point x="191" y="711"/>
      <point x="24" y="534"/>
    </contour>
    <contour>
      <point x="141" y="361" type="curve"/>
      <point x="141" y="526"/>
      <point x="228" y="668"/>
      <point x="377" y="668" type="curve"/>
      <point x="531" y="668"/>
      <point x="657" y="522"/>
      <point x="657" y="331" type="curve"/>
      <point x="657" y="166"/>
      <point x="569" y="34"/>
      <point x="421" y="34" type="curve"/>
      <point x="267" y="34"/>
      <point x="141" y="170"/>
    </contour>
    <contour>
      <point x="300" y="0" type="move" name="bottom"/>
    </contour>
    <contour>
      <point x="429" y="350" type="move" name="center"/>
    </contour>
    <contour>
      <point x="753" y="10" type="move" name="ogonek"/>
    </contour>
    <contour>
      <point x="300" y="700" type="move" name="top"/>
    </contour>
    <contour>
      <point x="43" y="700" type="move" name="topleft"/>
    </contour>
    <contour>
      <point x="815" y="700" type="move" name="topright"/>
    </contour>
  </outline>
</glyph>
<glyph name="R" format="1">
  <advance width="704"/>
  <unicode hex="0052"/>
  <outline>
    <contour>
      <point x="30" y="675" type="curve"/>
      <point x="33" y="700" type="line"/>
      <point x="120" y="700"/>
      <point x="186" y="701"/>
      <point x="282" y="701" type="curve"/>
      <point x="441" y="701"/>
      <point x="504" y="644"/>
      <point x="504" y="571" type="curve"/>
      <point x="504" y="481"/>
      <point x="421" y="449"/>
      <point x="316" y="398" type="curve"/>
      <point x="490" y="372"/>
      <point x="522" y="233"/>
      <point x="615" y="85" type="curve"/>
      <point x="634" y="55"/>
      <point x="653" y="34"/>
      <point x="699" y="30" type="curve"/>
      <point x="699" y="0" type="line"/>
      <point x="521" y="0" type="line"/>
      <point x="440" y="160"/>
      <point x="392" y="383"/>
      <point x="169" y="352" type="curve"/>
      <point x="166" y="352" type="line"/>
      <point x="166" y="246"/>
      <point x="168" y="133"/>
      <point x="172" y="2" type="curve"/>
      <point x="10" y="1" type="line"/>
      <point x="10" y="28" type="line"/>
      <point x="48" y="38"/>
      <point x="58" y="58"/>
      <point x="59" y="86" type="curve"/>
      <point x="61" y="134"/>
      <point x="65" y="474"/>
      <point x="65" y="610" type="curve"/>
      <point x="65" y="663"/>
      <point x="65" y="663"/>
    </contour>
    <contour>
      <point x="166" y="401" type="curve"/>
      <point x="333" y="420"/>
      <point x="404" y="479"/>
      <point x="404" y="560" type="curve"/>
      <point x="404" y="665"/>
      <point x="259" y="680"/>
      <point x="172" y="647" type="curve"/>
      <point x="169" y="543"/>
      <point x="167" y="475"/>
    </contour>
    <contour>
      <point x="347" y="0" type="move" name="bottom"/>
    </contour>
    <contour>
      <point x="347" y="700" type="move" name="top"/>
    </contour>
  </outline>
</glyph>
<glyph name="S" format="1">
  <advance width="621"/>
  <unicode hex="0053"/>
  <outline>
    <contour>
      <point x="583" y="512" type="line"/>
      <point x="582" y="689" type="line"/>
      <point x="583" y="689"/>
      <point x="482" y="713"/>
      <point x="381" y="713" type="curve"/>
      <point x="168" y="713"/>
      <point x="70" y="653"/>
      <point x="70" y="527" type="curve"/>
      <point x="70" y="427"/>
      <point x="132" y="368"/>
      <point x="271" y="322" type="curve"/>
      <point x="374" y="288"/>
      <point x="486" y="257"/>
      <point x="486" y="160" type="curve"/>
      <point x="486" y="70"/>
      <point x="412" y="28"/>
      <point x="278" y="28" type="curve"/>
      <point x="148" y="28"/>
      <point x="94" y="89"/>
      <point x="79" y="176" type="curve"/>
      <point x="51" y="177" type="line"/>
      <point x="51" y="0" type="line"/>
      <point x="51" y="0"/>
      <point x="155" y="-9"/>
      <point x="277" y="-9" type="curve"/>
      <point x="462" y="-9"/>
      <point x="583" y="49"/>
      <point x="583" y="185" type="curve"/>
      <point x="583" y="330"/>
      <point x="483" y="364"/>
      <point x="346" y="414" type="curve"/>
      <point x="232" y="456"/>
      <point x="182" y="482"/>
      <point x="182" y="558" type="curve"/>
      <point x="182" y="629"/>
      <point x="248" y="677"/>
      <point x="341" y="677" type="curve"/>
      <point x="437" y="677"/>
      <point x="533" y="634"/>
      <point x="556" y="512" type="curve"/>
    </contour>
    <contour>
      <point x="311" y="0" type="move" name="bottom"/>
    </contour>
    <contour>
      <point x="311" y="700" type="move" name="top"/>
    </contour>
  </outline>
</glyph>
<glyph name="T" format="1">
  <advance width="784"/>
  <unicode hex="0054"/>
  <outline>
    <contour>
      <point x="386" y="635" type="curve"/>
      <point x="129" y="635"/>
      <point x="72" y="643"/>
      <point x="43" y="551" type="curve"/>
      <point x="13" y="551" type="line"/>
      <point x="29" y="701" type="line"/>
      <point x="774" y="702" type="line"/>
      <point x="764" y="558" type="line"/>
      <point x="734" y="558" type="line"/>
      <point x="707" y="644"/>
      <point x="648" y="635"/>
    </contour>
    <contour>
      <point x="324" y="149" type="curve"/>
      <point x="338" y="673" type="line"/>
      <point x="435" y="673" type="line"/>
      <point x="442" y="149" type="line" smooth="yes"/>
      <point x="443" y="47"/>
      <point x="453" y="48"/>
      <point x="517" y="18" type="curve"/>
      <point x="517" y="-4" type="line"/>
      <point x="423" y="1"/>
      <point x="341" y="1"/>
      <point x="253" y="-4" type="curve"/>
      <point x="253" y="18" type="line"/>
      <point x="321" y="48"/>
      <point x="321" y="48"/>
    </contour>
    <contour>
      <point x="392" y="0" type="move" name="bottom"/>
    </contour>
    <contour>
      <point x="392" y="350" type="move" name="center"/>
    </contour>
    <contour>
      <point x="392" y="700" type="move" name="top"/>
    </contour>
  </outline>
</glyph>
<glyph name="U" format="1">
  <advance width="819"/>
  <unicode hex="0055"/>
  <outline>
    <contour>
      <point x="15" y="701" type="line"/>
      <point x="15" y="671" type="line"/>
      <point x="92" y="659"/>
      <point x="92" y="662"/>
      <point x="92" y="628" type="curve"/>
      <point x="92" y="254" type="line" smooth="yes"/>
      <point x="92" y="101"/>
      <point x="174" y="-10"/>
      <point x="424" y="-10" type="curve"/>
      <point x="605" y="-10"/>
      <point x="720" y="112"/>
      <point x="720" y="263" type="curve"/>
      <point x="720" y="629" type="line"/>
      <point x="720" y="630" type="line" smooth="yes"/>
      <point x="720" y="670"/>
      <point x="721" y="669"/>
      <point x="794" y="674" type="curve"/>
      <point x="794" y="700" type="line"/>
      <point x="556" y="700" type="line"/>
      <point x="556" y="673" type="line"/>
      <point x="662" y="666"/>
      <point x="662" y="666"/>
      <point x="662" y="625" type="curve"/>
      <point x="662" y="269" type="line" smooth="yes"/>
      <point x="662" y="108"/>
      <point x="549" y="36"/>
      <point x="429" y="36" type="curve"/>
      <point x="250" y="36"/>
      <point x="195" y="128"/>
      <point x="195" y="276" type="curve"/>
      <point x="195" y="628" type="line" smooth="yes"/>
      <point x="195" y="659"/>
      <point x="236" y="659"/>
      <point x="317" y="670" type="curve"/>
      <point x="317" y="700" type="line"/>
    </contour>
  </outline>
</glyph>
<glyph name="V" format="1">
  <advance width="814"/>
  <unicode hex="0056"/>
  <outline>
    <contour>
      <point x="702" y="697" type="curve"/>
      <point x="799" y="697" type="line"/>
      <point x="799" y="667" type="line"/>
      <point x="749" y="657"/>
      <point x="752" y="659"/>
      <point x="733" y="618" type="curve"/>
      <point x="621" y="374"/>
      <point x="528" y="180"/>
      <point x="427" y="0" type="curve"/>
      <point x="392" y="0" type="line"/>
      <point x="115" y="517" type="line" smooth="yes"/>
      <point x="60" y="619"/>
      <point x="36" y="623"/>
      <point x="-7" y="639" type="curve"/>
      <point x="-10" y="669" type="line"/>
      <point x="168" y="697" type="line"/>
      <point x="204" y="569"/>
      <point x="343" y="327"/>
      <point x="447" y="147" type="curve"/>
      <point x="562" y="340"/>
      <point x="634" y="506"/>
    </contour>
    <contour>
      <point x="411" y="0" type="move" name="bottom"/>
    </contour>
    <contour>
      <point x="411" y="700" type="move" name="top"/>
    </contour>
  </outline>
</glyph>
<glyph name="W" format="1">
  <advance width="1174"/>
  <unicode hex="0057"/>
  <outline>
    <contour>
      <point x="722" y="697" type="curve"/>
      <point x="829" y="697" type="line"/>
      <point x="829" y="667" type="line"/>
      <point x="807" y="666"/>
      <point x="785" y="641"/>
      <point x="731" y="539" type="curve"/>
      <point x="447" y="0" type="line"/>
      <point x="412" y="0" type="line"/>
      <point x="135" y="517" type="line" smooth="yes"/>
      <point x="69" y="639"/>
      <point x="48" y="651"/>
      <point x="5" y="667" type="curve"/>
      <point x="5" y="697" type="line"/>
      <point x="188" y="697" type="line"/>
      <point x="223" y="572"/>
      <point x="358" y="337"/>
      <point x="461" y="158" type="curve"/>
      <point x="560" y="342"/>
      <point x="646" y="510"/>
    </contour>
    <contour>
      <point x="1062" y="697" type="curve"/>
      <point x="1169" y="697" type="line"/>
      <point x="1169" y="667" type="line"/>
      <point x="1147" y="666"/>
      <point x="1125" y="641"/>
      <point x="1071" y="539" type="curve"/>
      <point x="787" y="0" type="line"/>
      <point x="752" y="0" type="line"/>
      <point x="475" y="517" type="line" smooth="yes"/>
      <point x="409" y="639"/>
      <point x="388" y="651"/>
      <point x="345" y="667" type="curve"/>
      <point x="345" y="697" type="line"/>
      <point x="528" y="697" type="line"/>
      <point x="563" y="572"/>
      <point x="698" y="337"/>
      <point x="801" y="158" type="curve"/>
      <point x="900" y="342"/>
      <point x="986" y="510"/>
    </contour>
  </outline>
</glyph>
<glyph name="X" format="1">
  <advance width="745"/>
  <unicode hex="0058"/>
  <outline>
    <contour>
      <point x="716" y="0" type="curve"/>
      <point x="716" y="30" type="line"/>
      <point x="665" y="46"/>
      <point x="402" y="400"/>
      <point x="242" y="601" type="curve"/>
      <point x="190" y="666"/>
      <point x="221" y="659"/>
      <point x="318" y="670" type="curve"/>
      <point x="318" y="700" type="line"/>
      <point x="318" y="700"/>
      <point x="30" y="700"/>
      <point x="30" y="700" type="curve"/>
      <point x="30" y="670" type="line"/>
      <point x="90" y="643"/>
      <point x="342" y="280"/>
      <point x="516" y="86" type="curve"/>
      <point x="551" y="47"/>
      <point x="539" y="36"/>
      <point x="434" y="30" type="curve"/>
      <point x="434" y="0" type="line"/>
      <point x="433" y="1"/>
      <point x="715" y="0"/>
    </contour>
    <contour>
      <point x="170" y="80" type="curve"/>
      <point x="373" y="305" type="line"/>
      <point x="331" y="336" type="line"/>
      <point x="34" y="30" type="line"/>
      <point x="34" y="0" type="line"/>
      <point x="255" y="0" type="line"/>
      <point x="255" y="30" type="line"/>
      <point x="170" y="41"/>
      <point x="138" y="44"/>
    </contour>
    <contour>
      <point x="581" y="618" type="curve"/>
      <point x="358" y="372" type="line"/>
      <point x="402" y="345" type="line"/>
      <point x="712" y="670" type="line"/>
      <point x="712" y="700" type="line"/>
      <point x="503" y="700" type="line"/>
      <point x="503" y="670" type="line"/>
      <point x="577" y="668"/>
      <point x="617" y="658"/>
    </contour>
    <contour>
      <point x="373" y="0" type="move" name="bottom"/>
    </contour>
    <contour>
      <point x="373" y="700" type="move" name="top"/>
    </contour>
  </outline>
</glyph>
<glyph name="Z" format="1">
  <advance width="759"/>
  <unicode hex="005A"/>
  <outline>
    <contour>
      <point x="43" y="581" type="curve"/>
      <point x="5" y="597" type="line"/>
      <point x="113" y="710" type="line"/>
      <point x="280" y="664"/>
      <point x="561" y="667"/>
      <point x="733" y="702" type="curve"/>
      <point x="754" y="674" type="line"/>
      <point x="295" y="275" type="line"/>
      <point x="517" y="302"/>
      <point x="703" y="215"/>
      <point x="703" y="28" type="curve"/>
      <point x="703" y="-130"/>
      <point x="563" y="-260"/>
      <point x="394" y="-260" type="curve"/>
      <point x="302" y="-260"/>
      <point x="225" y="-234"/>
      <point x="182" y="-188" type="curve"/>
      <point x="182" y="-165" type="line"/>
      <point x="314" y="-150" type="line"/>
      <point x="332" y="-182"/>
      <point x="355" y="-224"/>
      <point x="422" y="-224" type="curve"/>
      <point x="516" y="-224"/>
      <point x="610" y="-144"/>
      <point x="610" y="-28" type="curve"/>
      <point x="610" y="113"/>
      <point x="478" y="185"/>
      <point x="330" y="185" type="curve"/>
      <point x="244" y="185"/>
      <point x="150" y="150"/>
      <point x="56" y="67" type="curve"/>
      <point x="23" y="100" type="line"/>
      <point x="177" y="226"/>
      <point x="434" y="450"/>
      <point x="578" y="591" type="curve"/>
      <point x="368" y="559"/>
      <point x="163" y="621"/>
    </contour>
    <contour>
      <point x="380" y="0" type="move" name="bottom"/>
    </contour>
    <contour>
      <point x="380" y="700" type="move" name="top"/>
    </contour>
  </outline>
</glyph>
<glyph name="a" format="1">
  <advance width="404"/>
  <unicode hex="0061"/>
  <outline>
    <contour>
      <point x="244" y="308" type="curve"/>
      <point x="244" y="88" type="line"/>
      <point x="281" y="-6" type="line"/>
      <point x="384" y="29" type="line"/>
      <point x="384" y="52" type="line"/>
      <point x="359" y="79"/>
      <point x="340" y="91"/>
      <point x="339" y="167" type="curve"/>
      <point x="338" y="212"/>
      <point x="342" y="283"/>
      <point x="347" y="367" type="curve"/>
      <point x="349" y="401"/>
      <point x="285" y="450"/>
      <point x="251" y="450" type="curve"/>
      <point x="214" y="450"/>
      <point x="137" y="405"/>
      <point x="76" y="366" type="curve"/>
      <point x="84" y="340" type="line"/>
      <point x="115" y="356"/>
      <point x="135" y="366"/>
      <point x="171" y="366" type="curve"/>
      <point x="206" y="366"/>
      <point x="244" y="342"/>
    </contour>
    <contour>
      <point x="269" y="256" type="curve"/>
      <point x="260" y="305" type="line"/>
      <point x="105" y="207"/>
      <point x="38" y="153"/>
      <point x="10" y="117" type="curve"/>
      <point x="30" y="70"/>
      <point x="51" y="36"/>
      <point x="102" y="-8" type="curve"/>
      <point x="148" y="16"/>
      <point x="213" y="60"/>
      <point x="260" y="78" type="curve"/>
      <point x="246" y="117" type="line"/>
      <point x="221" y="95"/>
      <point x="191" y="82"/>
      <point x="170" y="82" type="curve"/>
      <point x="142" y="82"/>
      <point x="105" y="120"/>
      <point x="109" y="147" type="curve"/>
      <point x="115" y="188"/>
      <point x="218" y="237"/>
    </contour>
    <contour>
      <point x="207" y="1" type="move" name="bottom"/>
    </contour>
    <contour>
      <point x="364" y="12" type="move" name="ogonek"/>
    </contour>
    <contour>
      <point x="207" y="445" type="move" name="top"/>
    </contour>
  </outline>
</glyph>
<glyph name="b" format="1">
  <advance width="506"/>
  <unicode hex="0062"/>
  <outline>
    <contour>
      <point x="177" y="702" type="line"/>
      <point x="184" y="681" type="line"/>
      <point x="165" y="629"/>
      <point x="162" y="524"/>
      <point x="159" y="340" type="curve"/>
      <point x="155" y="122" type="line"/>
      <point x="180" y="109"/>
      <point x="260" y="86"/>
      <point x="304" y="86" type="curve"/>
      <point x="359" y="110"/>
      <point x="391" y="143"/>
      <point x="391" y="215" type="curve"/>
      <point x="391" y="287"/>
      <point x="338" y="350"/>
      <point x="259" y="350" type="curve"/>
      <point x="203" y="350"/>
      <point x="164" y="323"/>
      <point x="140" y="304" type="curve"/>
      <point x="138" y="340" type="line"/>
      <point x="292" y="450" type="line"/>
      <point x="381" y="450"/>
      <point x="471" y="388"/>
      <point x="471" y="264" type="curve"/>
      <point x="471" y="138"/>
      <point x="382" y="84"/>
      <point x="276" y="-10" type="curve"/>
      <point x="222" y="10"/>
      <point x="108" y="28"/>
      <point x="56" y="45" type="curve"/>
      <point x="66" y="265"/>
      <point x="52" y="582"/>
      <point x="45" y="678" type="curve"/>
    </contour>
    <contour>
      <point x="246" y="1" type="move" name="bottom"/>
    </contour>
    <contour>
      <point x="246" y="445" type="move" name="top"/>
    </contour>
  </outline>
</glyph>
<glyph name="c" format="1">
  <advance width="380"/>
  <unicode hex="0063"/>
  <outline>
    <contour>
      <point x="369" y="403" type="line"/>
      <point x="370" y="410" type="line"/>
      <point x="352" y="436"/>
      <point x="310" y="456"/>
      <point x="265" y="456" type="curve"/>
      <point x="198" y="456"/>
      <point x="73" y="356"/>
      <point x="53" y="306" type="curve"/>
      <point x="6" y="167"/>
      <point x="48" y="-1"/>
      <point x="205" y="-8" type="curve"/>
      <point x="252" y="-2"/>
      <point x="343" y="48"/>
      <point x="362" y="63" type="curve"/>
      <point x="352" y="87" type="line"/>
      <point x="236" y="59"/>
      <point x="134" y="102"/>
      <point x="134" y="233" type="curve"/>
      <point x="134" y="313"/>
      <point x="177" y="365"/>
      <point x="208" y="388" type="curve"/>
      <point x="246" y="382"/>
      <point x="279" y="357"/>
      <point x="295" y="337" type="curve"/>
    </contour>
    <contour>
      <point x="187" y="1" type="move" name="bottom"/>
    </contour>
    <contour>
      <point x="197" y="445" type="move" name="top"/>
    </contour>
  </outline>
</glyph>
<glyph name="d" format="1">
  <advance width="577"/>
  <unicode hex="0064"/>
  <outline>
    <contour>
      <point x="242" y="388" type="curve"/>
      <point x="286" y="369" type="line"/>
      <point x="233" y="347"/>
      <point x="176" y="287"/>
      <point x="176" y="206" type="curve"/>
      <point x="176" y="85"/>
      <point x="253" y="42"/>
      <point x="318" y="42" type="curve"/>
      <point x="383" y="42"/>
      <point x="445" y="111"/>
      <point x="445" y="206" type="curve"/>
      <point x="445" y="295"/>
      <point x="399" y="339"/>
      <point x="316" y="354" type="curve"/>
      <point x="251" y="366"/>
      <point x="180" y="379"/>
      <point x="41" y="394" type="curve"/>
      <point x="35" y="414" type="line"/>
      <point x="113" y="496" type="line"/>
      <point x="137" y="494" type="line"/>
      <point x="156" y="469"/>
      <point x="263" y="457"/>
      <point x="355" y="445" type="curve"/>
      <point x="495" y="427"/>
      <point x="542" y="337"/>
      <point x="542" y="253" type="curve"/>
      <point x="542" y="197"/>
      <point x="528" y="154"/>
      <point x="505" y="111" type="curve"/>
      <point x="443" y="46"/>
      <point x="355" y="-10"/>
      <point x="288" y="-10" type="curve"/>
      <point x="144" y="-10"/>
      <point x="37" y="128"/>
      <point x="68" y="257" type="curve"/>
      <point x="98" y="289"/>
      <point x="174" y="339"/>
    </contour>
    <contour>
      <point x="291" y="1" type="move" name="bottom"/>
    </contour>
    <contour>
      <point x="291" y="223" type="move" name="center"/>
    </contour>
    <contour>
      <point x="291" y="445" type="move" name="top"/>
    </contour>
    <contour>
      <point x="528" y="445" type="move" name="topright"/>
    </contour>
  </outline>
</glyph>
<glyph name="e" format="1">
  <advance width="409"/>
  <unicode hex="0065"/>
  <outline>
    <contour>
      <point x="63" y="338" type="curve"/>
      <point x="48" y="306"/>
      <point x="35" y="266"/>
      <point x="35" y="199" type="curve"/>
      <point x="35" y="64"/>
      <point x="133" y="-9"/>
      <point x="208" y="-9" type="curve"/>
      <point x="259" y="-9"/>
      <point x="330" y="32"/>
      <point x="375" y="61" type="curve"/>
      <point x="367" y="83" type="line"/>
      <point x="233" y="36"/>
      <point x="138" y="117"/>
      <point x="138" y="247" type="curve"/>
      <point x="138" y="295"/>
      <point x="146" y="334"/>
      <point x="177" y="375" type="curve"/>
      <point x="231" y="375"/>
      <point x="289" y="337"/>
      <point x="289" y="296" type="curve"/>
      <point x="139" y="227" type="line"/>
      <point x="127" y="185" type="line"/>
      <point x="386" y="300" type="line"/>
      <point x="394" y="319" type="line"/>
      <point x="381" y="417"/>
      <point x="313" y="440"/>
      <point x="242" y="453" type="curve"/>
      <point x="214" y="443"/>
      <point x="104" y="388"/>
    </contour>
    <contour>
      <point x="209" y="1" type="move" name="bottom"/>
    </contour>
    <contour>
      <point x="352" y="12" type="move" name="ogonek"/>
    </contour>
    <contour>
      <point x="209" y="445" type="move" name="top"/>
    </contour>
  </outline>
</glyph>
<glyph name="f" format="1">
  <advance width="259"/>
  <unicode hex="0066"/>
  <outline>
    <contour>
      <point x="310" y="401" type="line"/>
      <point x="271" y="360" type="line"/>
      <point x="30" y="360" type="line"/>
      <point x="30" y="374" type="line"/>
      <point x="85" y="414" type="line"/>
      <point x="85" y="414" type="line"/>
      <point x="310" y="414" type="line"/>
    </contour>
    <contour>
      <point x="181" y="1" type="curve"/>
      <point x="68" y="-10" type="line"/>
      <point x="71" y="185"/>
      <point x="75" y="385"/>
      <point x="75" y="581" type="curve"/>
      <point x="121" y="627"/>
      <point x="203" y="709"/>
      <point x="266" y="709" type="curve"/>
      <point x="307" y="709"/>
      <point x="354" y="680"/>
      <point x="387" y="664" type="curve"/>
      <point x="389" y="647" type="line"/>
      <point x="319" y="594" type="line"/>
      <point x="284" y="619"/>
      <point x="238" y="647"/>
      <point x="204" y="647" type="curve"/>
      <point x="189" y="628"/>
      <point x="173" y="589"/>
      <point x="173" y="507" type="curve"/>
      <point x="173" y="352"/>
      <point x="171" y="205"/>
    </contour>
    <contour>
      <point x="148" y="1" type="move" name="bottom"/>
    </contour>
    <contour>
      <point x="148" y="445" type="move" name="top"/>
    </contour>
  </outline>
</glyph>
<glyph name="g" format="1">
  <advance width="537"/>
  <unicode hex="0067"/>
  <outline>
    <contour>
      <point x="187" y="47" type="curve"/>
      <point x="223" y="32" type="line" smooth="yes"/>
      <point x="334" y="-20"/>
      <point x="380" y="-57"/>
      <point x="380" y="-128" type="curve"/>
      <point x="380" y="-204"/>
      <point x="324" y="-247"/>
      <point x="272" y="-247" type="curve"/>
      <point x="193" y="-247"/>
      <point x="132" y="-188"/>
      <point x="132" y="-108" type="curve"/>
      <point x="132" y="-42"/>
      <point x="166" y="4"/>
      <point x="221" y="44" type="curve"/>
      <point x="180" y="60" type="line"/>
      <point x="119" y="20"/>
      <point x="30" y="-41"/>
      <point x="30" y="-100" type="curve"/>
      <point x="30" y="-206"/>
      <point x="126" y="-288"/>
      <point x="233" y="-288" type="curve"/>
      <point x="338" y="-288"/>
      <point x="486" y="-220"/>
      <point x="486" y="-77" type="curve"/>
      <point x="486" y="26"/>
      <point x="392" y="65"/>
      <point x="321" y="96" type="curve"/>
      <point x="303" y="104" type="line" smooth="yes"/>
      <point x="206" y="146"/>
      <point x="128" y="172"/>
      <point x="128" y="257" type="curve"/>
      <point x="128" y="313"/>
      <point x="170" y="365"/>
      <point x="235" y="365" type="curve"/>
      <point x="307" y="365"/>
      <point x="369" y="329"/>
      <point x="369" y="250" type="curve"/>
      <point x="369" y="195"/>
      <point x="329" y="137"/>
      <point x="281" y="102" type="curve"/>
      <point x="323" y="89" type="line"/>
      <point x="371" y="111"/>
      <point x="475" y="175"/>
      <point x="475" y="262" type="curve"/>
      <point x="475" y="296"/>
      <point x="461" y="328"/>
      <point x="448" y="353" type="curve"/>
      <point x="527" y="351" type="line"/>
      <point x="527" y="422" type="line"/>
      <point x="443" y="429" type="line" smooth="yes"/>
      <point x="398" y="433"/>
      <point x="331" y="447"/>
      <point x="256" y="450" type="curve"/>
      <point x="178" y="440"/>
      <point x="40" y="334"/>
      <point x="40" y="224" type="curve"/>
      <point x="40" y="110"/>
      <point x="120" y="76"/>
    </contour>
    <contour>
      <point x="277" y="1" type="move" name="bottom"/>
    </contour>
    <contour>
      <point x="277" y="445" type="move" name="top"/>
    </contour>
  </outline>
</glyph>
<glyph name="h" format="1">
  <advance width="523"/>
  <unicode hex="0068"/>
  <outline>
    <contour>
      <point x="281" y="108" type="line"/>
      <point x="230" y="32" type="line"/>
      <point x="317" y="-12" type="line"/>
      <point x="378" y="38"/>
      <point x="488" y="206"/>
      <point x="488" y="244" type="curve"/>
      <point x="488" y="388"/>
      <point x="389" y="451"/>
      <point x="280" y="451" type="curve"/>
      <point x="145" y="348" type="line"/>
      <point x="147" y="316" type="line"/>
      <point x="171" y="335"/>
      <point x="209" y="350"/>
      <point x="255" y="350" type="curve"/>
      <point x="334" y="350"/>
      <point x="408" y="298"/>
      <point x="408" y="206" type="curve"/>
      <point x="408" y="150"/>
      <point x="381" y="104"/>
      <point x="338" y="80" type="curve"/>
    </contour>
    <contour>
      <point x="53" y="-8" type="curve"/>
      <point x="161" y="1" type="line"/>
      <point x="154" y="368" type="line" smooth="yes"/>
      <point x="152" y="492"/>
      <point x="150" y="655"/>
      <point x="174" y="687" type="curve"/>
      <point x="171" y="713" type="line"/>
      <point x="45" y="700" type="line"/>
      <point x="62" y="546"/>
      <point x="56" y="147"/>
    </contour>
    <contour>
      <point x="255" y="1" type="move" name="bottom"/>
    </contour>
    <contour>
      <point x="255" y="223" type="move" name="center"/>
    </contour>
    <contour>
      <point x="255" y="445" type="move" name="top"/>
    </contour>
  </outline>
</glyph>
<glyph name="i" format="1">
  <advance width="244"/>
  <unicode hex="0069"/>
  <outline>
    <contour>
      <point x="67" y="65" type="curve"/>
      <point x="66" y="360" type="line"/>
      <point x="66" y="384"/>
      <point x="55" y="390"/>
      <point x="26" y="399" type="curve"/>
      <point x="25" y="418" type="line"/>
      <point x="61" y="436"/>
      <point x="90" y="445"/>
      <point x="116" y="456" type="curve"/>
      <point x="124" y="456"/>
      <point x="171" y="428"/>
      <point x="169" y="404" type="curve"/>
      <point x="164" y="349"/>
      <point x="161" y="212"/>
      <point x="167" y="109" type="curve"/>
      <point x="169" y="75"/>
      <point x="179" y="58"/>
      <point x="214" y="60" type="curve"/>
      <point x="216" y="35" type="line"/>
      <point x="185" y="23"/>
      <point x="140" y="2"/>
      <point x="116" y="-10" type="curve"/>
      <point x="98" y="-10"/>
      <point x="67" y="26"/>
    </contour>
    <contour>
      <point x="219" y="705" type="line"/>
      <point x="136" y="550" type="line"/>
      <point x="106" y="564" type="line"/>
      <point x="170" y="710" type="line"/>
    </contour>
    <contour>
      <point x="125" y="1" type="move" name="bottom"/>
    </contour>
  </outline>
</glyph>
<glyph name="j" format="1">
  <advance width="243"/>
  <unicode hex="006A"/>
  <outline>
    <contour>
      <point x="79" y="64" type="curve"/>
      <point x="71" y="350" type="line"/>
      <point x="70" y="384"/>
      <point x="59" y="392"/>
      <point x="31" y="399" type="curve"/>
      <point x="30" y="418" type="line"/>
      <point x="49" y="431"/>
      <point x="81" y="441"/>
      <point x="102" y="452" type="curve"/>
      <point x="120" y="443"/>
      <point x="150" y="429"/>
      <point x="170" y="414" type="curve"/>
      <point x="160" y="351"/>
      <point x="170" y="169"/>
      <point x="170" y="47" type="curve"/>
      <point x="130" y="-17"/>
      <point x="110" y="-107"/>
      <point x="90" y="-234" type="curve"/>
      <point x="60" y="-231" type="line"/>
      <point x="71" y="-124"/>
      <point x="80" y="25"/>
    </contour>
    <contour>
      <point x="198" y="664" type="line"/>
      <point x="116" y="529" type="line"/>
      <point x="86" y="543" type="line"/>
      <point x="150" y="689" type="line"/>
    </contour>
  </outline>
</glyph>
<glyph name="k" format="1">
  <advance width="426"/>
  <unicode hex="006B"/>
  <outline>
    <contour>
      <point x="174" y="242" type="curve"/>
      <point x="174" y="215" type="line"/>
      <point x="304" y="183"/>
      <point x="309" y="92"/>
      <point x="309" y="1" type="curve"/>
      <point x="415" y="1" type="line"/>
      <point x="415" y="83"/>
      <point x="392" y="195"/>
      <point x="298" y="249" type="curve"/>
      <point x="337" y="280"/>
      <point x="416" y="334"/>
      <point x="416" y="351" type="curve"/>
      <point x="416" y="375"/>
      <point x="365" y="456"/>
      <point x="320" y="456" type="curve"/>
      <point x="301" y="456"/>
      <point x="221" y="396"/>
      <point x="163" y="370" type="curve"/>
      <point x="168" y="333" type="line"/>
      <point x="168" y="334"/>
      <point x="226" y="376"/>
      <point x="259" y="376" type="curve"/>
      <point x="298" y="376"/>
      <point x="311" y="353"/>
      <point x="311" y="324" type="curve"/>
      <point x="311" y="294"/>
      <point x="270" y="234"/>
    </contour>
    <contour>
      <point x="85" y="1" type="curve"/>
      <point x="188" y="1" type="line"/>
      <point x="183" y="259"/>
      <point x="182" y="376"/>
      <point x="185" y="635" type="curve"/>
      <point x="182" y="640" type="line"/>
      <point x="45" y="623" type="line"/>
      <point x="45" y="599" type="line"/>
      <point x="66" y="583"/>
      <point x="81" y="596"/>
      <point x="86" y="501" type="curve"/>
      <point x="94" y="355"/>
      <point x="88" y="179"/>
    </contour>
    <contour>
      <point x="236" y="1" type="move" name="bottom"/>
    </contour>
    <contour>
      <point x="236" y="445" type="move" name="top"/>
    </contour>
  </outline>
</glyph>
<glyph name="m" format="1">
  <advance width="702"/>
  <unicode hex="006D"/>
  <outline>
    <contour>
      <point x="64" y="1" type="line"/>
      <point x="66" y="360" type="line"/>
      <point x="66" y="374"/>
      <point x="55" y="391"/>
      <point x="36" y="399" type="curve"/>
      <point x="35" y="418" type="line"/>
      <point x="54" y="431"/>
      <point x="92" y="445"/>
      <point x="126" y="456" type="curve"/>
      <point x="145" y="444"/>
      <point x="177" y="428"/>
      <point x="177" y="370" type="curve"/>
      <point x="177" y="1" type="line"/>
    </contour>
    <contour>
      <point x="175" y="332" type="curve"/>
      <point x="173" y="383" type="line"/>
      <point x="210" y="407"/>
      <point x="264" y="454"/>
      <point x="301" y="454" type="curve"/>
      <point x="380" y="454"/>
      <point x="411" y="413"/>
      <point x="411" y="358" type="curve"/>
      <point x="411" y="1" type="line"/>
      <point x="297" y="1" type="line"/>
      <point x="302" y="76"/>
      <point x="304" y="250"/>
      <point x="304" y="318" type="curve"/>
      <point x="304" y="359"/>
      <point x="270" y="379"/>
      <point x="241" y="379" type="curve"/>
      <point x="221" y="379"/>
      <point x="189" y="364"/>
    </contour>
    <contour>
      <point x="474" y="379" type="curve"/>
      <point x="451" y="379"/>
      <point x="423" y="361"/>
      <point x="410" y="335" type="curve"/>
      <point x="390" y="371" type="line"/>
      <point x="446" y="413"/>
      <point x="502" y="451"/>
      <point x="530" y="451" type="curve"/>
      <point x="611" y="451"/>
      <point x="643" y="421"/>
      <point x="643" y="338" type="curve"/>
      <point x="643" y="233"/>
      <point x="643" y="116"/>
      <point x="647" y="1" type="curve"/>
      <point x="529" y="1" type="line"/>
      <point x="533" y="105"/>
      <point x="535" y="240"/>
      <point x="532" y="323" type="curve"/>
      <point x="531" y="354"/>
      <point x="513" y="379"/>
    </contour>
    <contour>
      <point x="345" y="1" type="move" name="bottom"/>
    </contour>
    <contour>
      <point x="345" y="445" type="move" name="top"/>
    </contour>
  </outline>
</glyph>
<glyph name="n" format="1">
  <advance width="486"/>
  <unicode hex="006E"/>
  <outline>
    <contour>
      <point x="37" y="370" type="curve"/>
      <point x="35" y="390" type="line"/>
      <point x="92" y="452" type="line"/>
      <point x="101" y="450" type="line" smooth="yes"/>
      <point x="136" y="442"/>
      <point x="185" y="411"/>
      <point x="185" y="358" type="curve"/>
      <point x="185" y="1" type="line"/>
      <point x="67" y="1" type="line"/>
      <point x="73" y="76"/>
      <point x="75" y="244"/>
      <point x="75" y="332" type="curve"/>
      <point x="75" y="368"/>
      <point x="60" y="367"/>
    </contour>
    <contour>
      <point x="258" y="379" type="curve"/>
      <point x="225" y="379"/>
      <point x="197" y="361"/>
      <point x="184" y="335" type="curve"/>
      <point x="164" y="371" type="line"/>
      <point x="219" y="404"/>
      <point x="285" y="450"/>
      <point x="313" y="450" type="curve"/>
      <point x="394" y="450"/>
      <point x="427" y="421"/>
      <point x="427" y="348" type="curve"/>
      <point x="427" y="233"/>
      <point x="427" y="116"/>
      <point x="431" y="1" type="curve"/>
      <point x="313" y="1" type="line"/>
      <point x="317" y="105"/>
      <point x="318" y="240"/>
      <point x="316" y="323" type="curve"/>
      <point x="315" y="354"/>
      <point x="297" y="379"/>
    </contour>
    <contour>
      <point x="239" y="1" type="move" name="bottom"/>
    </contour>
    <contour>
      <point x="239" y="445" type="move" name="top"/>
    </contour>
  </outline>
</glyph>
<glyph name="o" format="1">
  <advance width="511"/>
  <unicode hex="006F"/>
  <outline>
    <contour>
      <point x="35" y="211" type="curve"/>
      <point x="35" y="311"/>
      <point x="130" y="423"/>
      <point x="241" y="450" type="curve"/>
      <point x="369" y="440"/>
      <point x="476" y="370"/>
      <point x="476" y="232" type="curve"/>
      <point x="476" y="127"/>
      <point x="357" y="29"/>
      <point x="268" y="-10" type="curve"/>
      <point x="133" y="10"/>
      <point x="35" y="92"/>
    </contour>
    <contour>
      <point x="165" y="361" type="curve"/>
      <point x="69" y="254"/>
      <point x="153" y="79"/>
      <point x="321" y="67" type="curve"/>
      <point x="441" y="190"/>
      <point x="358" y="395"/>
    </contour>
    <contour>
      <point x="245" y="1" type="move" name="bottom"/>
    </contour>
    <contour>
      <point x="245" y="223" type="move" name="center"/>
    </contour>
    <contour>
      <point x="416" y="12" type="move" name="ogonek"/>
    </contour>
    <contour>
      <point x="245" y="445" type="move" name="top"/>
    </contour>
    <contour>
      <point x="437" y="445" type="move" name="topright"/>
    </contour>
  </outline>
</glyph>
<glyph name="p" format="1">
  <advance width="580"/>
  <unicode hex="0070"/>
  <outline>
    <contour>
      <point x="37" y="365" type="curve"/>
      <point x="35" y="385" type="line"/>
      <point x="102" y="458" type="line"/>
      <point x="111" y="456" type="line" smooth="yes"/>
      <point x="147" y="448"/>
      <point x="208" y="411"/>
      <point x="208" y="358" type="curve"/>
      <point x="208" y="-277" type="line"/>
      <point x="100" y="-277" type="line"/>
      <point x="106" y="-201"/>
      <point x="108" y="195"/>
      <point x="108" y="283" type="curve"/>
      <point x="108" y="318"/>
      <point x="81" y="361"/>
    </contour>
    <contour>
      <point x="307" y="46" type="curve"/>
      <point x="393" y="46"/>
      <point x="444" y="107"/>
      <point x="444" y="213" type="curve"/>
      <point x="444" y="316"/>
      <point x="372" y="367"/>
      <point x="297" y="367" type="curve"/>
      <point x="244" y="367"/>
      <point x="208" y="339"/>
      <point x="182" y="306" type="curve"/>
      <point x="170" y="357" type="line"/>
      <point x="237" y="389"/>
      <point x="330" y="444"/>
      <point x="366" y="457" type="curve"/>
      <point x="472" y="417"/>
      <point x="548" y="365"/>
      <point x="545" y="236" type="curve"/>
      <point x="543" y="114"/>
      <point x="400" y="-10"/>
      <point x="287" y="-10" type="curve"/>
      <point x="240" y="-10"/>
      <point x="182" y="-7"/>
      <point x="136" y="-22" type="curve"/>
      <point x="68" y="38" type="line"/>
      <point x="68" y="45" type="line"/>
      <point x="171" y="98" type="line"/>
      <point x="212" y="65"/>
      <point x="250" y="46"/>
    </contour>
    <contour>
      <point x="311" y="1" type="move" name="bottom"/>
    </contour>
    <contour>
      <point x="311" y="445" type="move" name="top"/>
    </contour>
  </outline>
</glyph>
<glyph name="q" format="1">
  <advance width="512"/>
  <unicode hex="0071"/>
  <outline>
    <contour>
      <point x="378" y="87" type="curve"/>
      <point x="377" y="148" type="line"/>
      <point x="341" y="112"/>
      <point x="308" y="89"/>
      <point x="261" y="89" type="curve"/>
      <point x="178" y="89"/>
      <point x="120" y="125"/>
      <point x="121" y="220" type="curve"/>
      <point x="122" y="303"/>
      <point x="186" y="377"/>
      <point x="258" y="377" type="curve"/>
      <point x="301" y="377"/>
      <point x="339" y="363"/>
      <point x="361" y="340" type="curve"/>
      <point x="361" y="102"/>
      <point x="361" y="-104"/>
      <point x="350" y="-287" type="curve"/>
      <point x="467" y="-282" type="line"/>
      <point x="462" y="-101"/>
      <point x="461" y="264"/>
      <point x="461" y="445" type="curve"/>
      <point x="420" y="449"/>
      <point x="331" y="457"/>
      <point x="280" y="457" type="curve"/>
      <point x="215" y="457"/>
      <point x="35" y="296"/>
      <point x="35" y="209" type="curve"/>
      <point x="35" y="80"/>
      <point x="87" y="-10"/>
      <point x="223" y="-10" type="curve"/>
      <point x="252" y="10"/>
      <point x="306" y="60"/>
    </contour>
    <contour>
      <point x="246" y="1" type="move" name="bottom"/>
    </contour>
    <contour>
      <point x="246" y="445" type="move" name="top"/>
    </contour>
  </outline>
</glyph>
<glyph name="r" format="1">
  <advance width="330"/>
  <unicode hex="0072"/>
  <outline>
    <contour>
      <point x="165" y="335" type="curve"/>
      <point x="154" y="372" type="line"/>
      <point x="197" y="391"/>
      <point x="234" y="449"/>
      <point x="272" y="449" type="curve"/>
      <point x="304" y="449"/>
      <point x="333" y="435"/>
      <point x="323" y="373" type="curve"/>
      <point x="267" y="339" type="line"/>
      <point x="254" y="345" type="line"/>
      <point x="255" y="361"/>
      <point x="234" y="372"/>
      <point x="218" y="372" type="curve"/>
      <point x="187" y="372"/>
      <point x="169" y="348"/>
    </contour>
    <contour>
      <point x="37" y="396" type="curve"/>
      <point x="35" y="416" type="line"/>
      <point x="139" y="453" type="line"/>
      <point x="153" y="449" type="line"/>
      <point x="177" y="377" type="line"/>
      <point x="180" y="251"/>
      <point x="180" y="127"/>
      <point x="187" y="1" type="curve"/>
      <point x="67" y="-3" type="line"/>
      <point x="73" y="72"/>
      <point x="72" y="250"/>
      <point x="74" y="308" type="curve"/>
      <point x="76" y="368"/>
      <point x="73" y="385"/>
    </contour>
    <contour>
      <point x="179" y="1" type="move" name="bottom"/>
    </contour>
    <contour>
      <point x="179" y="445" type="move" name="top"/>
    </contour>
  </outline>
</glyph>
<glyph name="u" format="1">
  <advance width="504"/>
  <unicode hex="0075"/>
  <outline>
    <contour>
      <point x="232" y="66" type="curve"/>
      <point x="266" y="66"/>
      <point x="313" y="84"/>
      <point x="327" y="111" type="curve"/>
      <point x="347" y="67" type="line"/>
      <point x="291" y="35"/>
      <point x="206" y="-10"/>
      <point x="178" y="-10" type="curve"/>
      <point x="113" y="-10"/>
      <point x="70" y="24"/>
      <point x="70" y="97" type="curve"/>
      <point x="70" y="158"/>
      <point x="70" y="272"/>
      <point x="70" y="320" type="curve"/>
      <point x="70" y="364"/>
      <point x="62" y="394"/>
      <point x="38" y="395" type="curve"/>
      <point x="35" y="415" type="line"/>
      <point x="134" y="456" type="line"/>
      <point x="178" y="428"/>
      <point x="175" y="395"/>
      <point x="174" y="346" type="curve"/>
      <point x="173" y="279"/>
      <point x="172" y="171"/>
      <point x="175" y="123" type="curve"/>
      <point x="177" y="92"/>
      <point x="194" y="66"/>
    </contour>
    <contour>
      <point x="291" y="413" type="curve"/>
      <point x="291" y="445" type="line"/>
      <point x="437" y="445" type="line"/>
      <point x="432" y="369"/>
      <point x="430" y="188"/>
      <point x="430" y="101" type="curve"/>
      <point x="430" y="65"/>
      <point x="445" y="57"/>
      <point x="467" y="54" type="curve"/>
      <point x="469" y="34" type="line"/>
      <point x="402" y="-13" type="line"/>
      <point x="390" y="-10" type="line" smooth="yes"/>
      <point x="355" y="-1"/>
      <point x="326" y="34"/>
      <point x="326" y="87" type="curve"/>
      <point x="326" y="365" type="line" smooth="yes"/>
      <point x="326" y="399"/>
      <point x="321" y="409"/>
    </contour>
    <contour>
      <point x="262" y="1" type="move" name="bottom"/>
    </contour>
    <contour>
      <point x="426" y="12" type="move" name="ogonek"/>
    </contour>
    <contour>
      <point x="262" y="445" type="move" name="top"/>
    </contour>
    <contour>
      <point x="444" y="445" type="move" name="topright"/>
    </contour>
  </outline>
</glyph>
<glyph name="v" format="1">
  <advance width="467"/>
  <unicode hex="0076"/>
  <outline>
    <contour>
      <point x="199" y="308" type="curve"/>
      <point x="186" y="346" type="line"/>
      <point x="225" y="375"/>
      <point x="307" y="456"/>
      <point x="315" y="456" type="curve"/>
      <point x="334" y="456"/>
      <point x="462" y="414"/>
      <point x="462" y="328" type="curve"/>
      <point x="462" y="191"/>
      <point x="285" y="-10"/>
      <point x="270" y="-10" type="curve"/>
      <point x="244" y="-10"/>
      <point x="135" y="48"/>
      <point x="124" y="105" type="curve"/>
      <point x="112" y="168"/>
      <point x="111" y="237"/>
      <point x="107" y="270" type="curve"/>
      <point x="102" y="313"/>
      <point x="58" y="346"/>
      <point x="6" y="354" type="curve"/>
      <point x="5" y="374" type="line"/>
      <point x="74" y="456" type="line"/>
      <point x="148" y="434"/>
      <point x="159" y="389"/>
      <point x="198" y="347" type="curve"/>
      <point x="214" y="193"/>
      <point x="200" y="111"/>
      <point x="288" y="85" type="curve"/>
      <point x="326" y="88"/>
      <point x="371" y="164"/>
      <point x="371" y="248" type="curve"/>
      <point x="371" y="303"/>
      <point x="331" y="354"/>
      <point x="290" y="354" type="curve"/>
      <point x="263" y="354"/>
      <point x="223" y="336"/>
    </contour>
    <contour>
      <point x="220" y="1" type="move" name="bottom"/>
    </contour>
    <contour>
      <point x="220" y="445" type="move" name="top"/>
    </contour>
  </outline>
</glyph>
<glyph name="w" format="1">
  <advance width="748"/>
  <unicode hex="0077"/>
  <outline>
    <contour>
      <point x="6" y="354" type="curve"/>
      <point x="5" y="374" type="line"/>
      <point x="74" y="456" type="line"/>
      <point x="145" y="435"/>
      <point x="158" y="392"/>
      <point x="194" y="352" type="curve"/>
      <point x="247" y="395"/>
      <point x="348" y="458"/>
      <point x="336" y="456" type="curve"/>
      <point x="407" y="435"/>
      <point x="439" y="392"/>
      <point x="475" y="352" type="curve"/>
      <point x="516" y="385"/>
      <point x="588" y="456"/>
      <point x="596" y="456" type="curve"/>
      <point x="615" y="456"/>
      <point x="743" y="414"/>
      <point x="743" y="328" type="curve"/>
      <point x="743" y="191"/>
      <point x="566" y="-10"/>
      <point x="551" y="-10" type="curve"/>
      <point x="525" y="-10"/>
      <point x="416" y="48"/>
      <point x="405" y="105" type="curve"/>
      <point x="402" y="120"/>
      <point x="400" y="134"/>
      <point x="398" y="149" type="curve"/>
      <point x="346" y="62"/>
      <point x="279" y="-10"/>
      <point x="270" y="-10" type="curve"/>
      <point x="244" y="-10"/>
      <point x="135" y="48"/>
      <point x="124" y="105" type="curve"/>
      <point x="112" y="168"/>
      <point x="111" y="237"/>
      <point x="107" y="270" type="curve"/>
      <point x="102" y="313"/>
      <point x="58" y="346"/>
    </contour>
    <contour>
      <point x="201" y="311" type="curve"/>
      <point x="212" y="180"/>
      <point x="207" y="109"/>
      <point x="288" y="85" type="curve"/>
      <point x="326" y="88"/>
      <point x="371" y="164"/>
      <point x="371" y="248" type="curve"/>
      <point x="371" y="308"/>
      <point x="334" y="352"/>
      <point x="287" y="354" type="curve"/>
      <point x="261" y="355"/>
      <point x="225" y="336"/>
    </contour>
    <contour>
      <point x="482" y="311" type="curve"/>
      <point x="493" y="180"/>
      <point x="488" y="109"/>
      <point x="569" y="85" type="curve"/>
      <point x="607" y="88"/>
      <point x="652" y="164"/>
      <point x="652" y="248" type="curve"/>
      <point x="652" y="303"/>
      <point x="612" y="354"/>
      <point x="571" y="354" type="curve"/>
      <point x="545" y="354"/>
      <point x="507" y="337"/>
    </contour>
  </outline>
</glyph>
<glyph name="x" format="1">
  <advance width="422"/>
  <unicode hex="0078"/>
  <outline>
    <contour>
      <point x="209" y="256" type="curve"/>
      <point x="209" y="328"/>
      <point x="175" y="428"/>
      <point x="103" y="457" type="curve"/>
      <point x="7" y="407" type="line"/>
      <point x="9" y="389" type="line"/>
      <point x="94" y="349"/>
      <point x="140" y="266"/>
      <point x="140" y="191" type="curve"/>
      <point x="140" y="93"/>
      <point x="60" y="10"/>
      <point x="5" y="-48" type="curve"/>
      <point x="55" y="-135" type="line"/>
      <point x="82" y="-131" type="line"/>
      <point x="81" y="-36"/>
      <point x="209" y="125"/>
    </contour>
    <contour>
      <point x="174" y="176" type="curve"/>
      <point x="174" y="88"/>
      <point x="237" y="21"/>
      <point x="265" y="-10" type="curve"/>
      <point x="288" y="1"/>
      <point x="364" y="34"/>
      <point x="385" y="46" type="curve"/>
      <point x="385" y="65" type="line"/>
      <point x="298" y="109"/>
      <point x="243" y="208"/>
      <point x="243" y="284" type="curve"/>
      <point x="243" y="311"/>
      <point x="251" y="335"/>
      <point x="265" y="353" type="curve"/>
      <point x="272" y="353"/>
      <point x="320" y="339"/>
      <point x="338" y="331" type="curve"/>
      <point x="397" y="414" type="line"/>
      <point x="397" y="419" type="line"/>
      <point x="384" y="430"/>
      <point x="345" y="456"/>
      <point x="335" y="456" type="curve"/>
      <point x="271" y="456"/>
      <point x="174" y="315"/>
    </contour>
    <contour>
      <point x="201" y="1" type="move" name="bottom"/>
    </contour>
    <contour>
      <point x="201" y="445" type="move" name="top"/>
    </contour>
  </outline>
</glyph>
<glyph name="y" format="1">
  <advance width="443"/>
  <unicode hex="0079"/>
  <outline>
    <contour>
      <point x="265" y="53" type="curve"/>
      <point x="252" y="33"/>
      <point x="134" y="-140"/>
      <point x="44" y="-187" type="curve"/>
      <point x="60" y="-288" type="line"/>
      <point x="72" y="-288" type="line"/>
      <point x="355" y="109" type="line" smooth="yes"/>
      <point x="390" y="157"/>
      <point x="444" y="234"/>
      <point x="444" y="282" type="curve"/>
      <point x="444" y="364"/>
      <point x="395" y="445"/>
      <point x="292" y="454" type="curve"/>
      <point x="258" y="428"/>
      <point x="172" y="333"/>
      <point x="164" y="328" type="curve"/>
      <point x="172" y="283" type="line"/>
      <point x="212" y="330"/>
      <point x="245" y="359"/>
      <point x="275" y="359" type="curve"/>
      <point x="322" y="359"/>
      <point x="362" y="313"/>
      <point x="362" y="262" type="curve"/>
      <point x="362" y="171"/>
      <point x="297" y="98"/>
    </contour>
    <contour>
      <point x="98" y="303" type="curve"/>
      <point x="203" y="-46" type="line"/>
      <point x="279" y="47" type="line"/>
      <point x="154" y="456" type="line" smooth="yes"/>
      <point x="153" y="459"/>
      <point x="21" y="377"/>
      <point x="23" y="374" type="curve"/>
      <point x="41" y="344" type="line"/>
      <point x="65" y="359"/>
      <point x="80" y="360"/>
    </contour>
    <contour>
      <point x="222" y="1" type="move" name="bottom"/>
    </contour>
    <contour>
      <point x="222" y="445" type="move" name="top"/>
    </contour>
  </outline>
</glyph>
<glyph name="z" format="1">
  <advance width="360"/>
  <unicode hex="007A"/>
  <outline>
    <contour>
      <point x="93" y="457" type="curve"/>
      <point x="10" y="344" type="line"/>
      <point x="45" y="332" type="line"/>
      <point x="110" y="374"/>
      <point x="209" y="351"/>
      <point x="273" y="328" type="curve"/>
      <point x="240" y="353" type="line"/>
      <point x="200" y="295"/>
      <point x="96" y="153"/>
      <point x="46" y="103" type="curve"/>
      <point x="64" y="80" type="line"/>
      <point x="154" y="133"/>
      <point x="259" y="66"/>
      <point x="259" y="-37" type="curve"/>
      <point x="259" y="-98"/>
      <point x="227" y="-161"/>
      <point x="191" y="-192" type="curve"/>
      <point x="162" y="-201"/>
      <point x="103" y="-189"/>
      <point x="64" y="-182" type="curve"/>
      <point x="39" y="-257" type="line"/>
      <point x="63" y="-279"/>
      <point x="90" y="-287"/>
      <point x="125" y="-287" type="curve"/>
      <point x="166" y="-287"/>
      <point x="350" y="-85"/>
      <point x="350" y="22" type="curve"/>
      <point x="350" y="128"/>
      <point x="246" y="196"/>
      <point x="141" y="178" type="curve"/>
      <point x="144" y="168" type="line"/>
      <point x="176" y="200"/>
      <point x="312" y="377"/>
      <point x="345" y="410" type="curve"/>
      <point x="327" y="434" type="line"/>
      <point x="267" y="433"/>
      <point x="176" y="438"/>
    </contour>
    <contour>
      <point x="195" y="1" type="move" name="bottom"/>
    </contour>
    <contour>
      <point x="195" y="445" type="move" name="top"/>
    </contour>
  </outline>
</glyph>
<glyph name="section" format="1">
  <advance width="448"/>
  <unicode hex="00A7"/>
  <outline>
    <contour>
      <point x="174" y="471" type="line"/>
      <point x="179" y="455" type="line"/>
      <point x="93" y="425"/>
      <point x="12" y="377"/>
      <point x="12" y="287" type="curve"/>
      <point x="12" y="144"/>
      <point x="276" y="88"/>
      <point x="276" y="-23" type="curve"/>
      <point x="276" y="-108"/>
      <point x="173" y="-164"/>
      <point x="110" y="-209" type="curve"/>
      <point x="150" y="-244" type="line"/>
      <point x="244" y="-177"/>
      <point x="355" y="-72"/>
      <point x="355" y="13" type="curve"/>
      <point x="355" y="163"/>
      <point x="90" y="225"/>
      <point x="90" y="327" type="curve"/>
      <point x="90" y="366"/>
      <point x="119" y="406"/>
      <point x="192" y="442" type="curve"/>
    </contour>
    <contour>
      <point x="352" y="451" type="curve"/>
      <point x="426" y="507" type="line"/>
      <point x="386" y="572"/>
      <point x="332" y="605"/>
      <point x="246" y="605" type="curve"/>
      <point x="163" y="605"/>
      <point x="82" y="558"/>
      <point x="82" y="484" type="curve"/>
      <point x="82" y="389"/>
      <point x="234" y="361"/>
      <point x="234" y="262" type="curve"/>
      <point x="234" y="204"/>
      <point x="229" y="174"/>
      <point x="192" y="139" type="curve"/>
      <point x="200" y="115" type="line"/>
      <point x="275" y="172"/>
      <point x="325" y="227"/>
      <point x="325" y="296" type="curve"/>
      <point x="325" y="387"/>
      <point x="172" y="428"/>
      <point x="172" y="504" type="curve"/>
      <point x="172" y="535"/>
      <point x="201" y="568"/>
      <point x="240" y="568" type="curve"/>
      <point x="291" y="568"/>
      <point x="319" y="519"/>
    </contour>
  </outline>
</glyph>
<glyph name="a_macr" format="1">
  <advance width="421"/>
  <unicode hex="0101"/>
  <outline>
    <contour>
      <point x="168" y="513" type="curve"/>
      <point x="141" y="530" type="line"/>
      <point x="215" y="621" type="line"/>
      <point x="304" y="615"/>
      <point x="332" y="603"/>
      <point x="368" y="628" type="curve"/>
      <point x="399" y="611" type="line"/>
      <point x="325" y="514" type="line"/>
      <point x="256" y="526"/>
      <point x="217" y="539"/>
    </contour>
    <component base="a"/>
    <contour>
      <point x="281.7" y="342" type="move" name="_top"/>
    </contour>
    <contour>
      <point x="281.7" y="645.03" type="move" name="top"/>
    </contour>
  </outline>
</glyph>
<glyph name="i_macr" format="1">
  <advance width="269"/>
  <unicode hex="012B"/>
  <outline>
    <contour>
      <point x="39" y="521" type="curve"/>
      <point x="16" y="534" type="line"/>
      <point x="70" y="637" type="line"/>
      <point x="188" y="631"/>
      <point x="204" y="608"/>
      <point x="243" y="664" type="curve"/>
      <point x="262" y="653" type="line"/>
      <point x="249" y="616"/>
      <point x="236" y="584"/>
      <point x="213" y="547" type="curve"/>
      <point x="95" y="555"/>
      <point x="70" y="559"/>
    </contour>
    <component base="idotless" xOffset="28"/>
    <contour>
      <point x="216" y="445" type="move" name="_top"/>
    </contour>
    <contour>
      <point x="132" y="1" type="move" name="bottom"/>
    </contour>
    <contour>
      <point x="216" y="748" type="move" name="top"/>
    </contour>
  </outline>
</glyph>
<glyph name="idotless" format="1">
  <advance width="228"/>
  <unicode hex="0131"/>
  <outline>
    <contour>
      <point x="57" y="29" type="curve"/>
      <point x="56" y="352" type="line"/>
      <point x="56" y="381"/>
      <point x="45" y="391"/>
      <point x="26" y="399" type="curve"/>
      <point x="25" y="418" type="line"/>
      <point x="43" y="431"/>
      <point x="77" y="445"/>
      <point x="103" y="456" type="curve"/>
      <point x="111" y="456"/>
      <point x="142" y="437"/>
      <point x="154" y="413" type="curve"/>
      <point x="154" y="96" type="line" smooth="yes"/>
      <point x="154" y="62"/>
      <point x="166" y="45"/>
      <point x="201" y="47" type="curve"/>
      <point x="203" y="25" type="line"/>
      <point x="177" y="13"/>
      <point x="127" y="-3"/>
      <point x="103" y="-10" type="curve"/>
      <point x="90" y="-2"/>
      <point x="73" y="9"/>
    </contour>
  </outline>
</glyph>
<glyph name="o_macr" format="1">
  <advance width="511"/>
  <unicode hex="014D"/>
  <outline>
    <contour>
      <point x="141.04" y="511.95" type="curve"/>
      <point x="114.4" y="526.38" type="line"/>
      <point x="129.94" y="553.02"/>
      <point x="154.36" y="584.1"/>
      <point x="187.66" y="616.29" type="curve"/>
      <point x="274.24" y="616.29"/>
      <point x="333.07" y="602.97"/>
      <point x="381.91" y="637.38" type="curve"/>
      <point x="412.99" y="624.06" type="line"/>
      <point x="394.12" y="601.86"/>
      <point x="375.25" y="564.12"/>
      <point x="347.5" y="530.82" type="curve"/>
      <point x="279.79" y="526.38"/>
      <point x="195.43" y="548.58"/>
    </contour>
    <component base="o"/>
    <contour>
      <point x="258.7" y="351" type="move" name="_top"/>
    </contour>
    <contour>
      <point x="258.7" y="654.03" type="move" name="top"/>
    </contour>
  </outline>
</glyph>
<glyph name="u_macr" format="1">
  <advance width="504"/>
  <unicode hex="016B"/>
  <outline>
    <contour>
      <point x="157.6304" y="506.813" type="curve"/>
      <point x="131.144" y="523.6012" type="line"/>
      <point x="146.5944" y="554.5948"/>
      <point x="170.8736" y="590.754"/>
      <point x="203.9816" y="628.2046" type="curve"/>
      <point x="290.0624" y="628.2046"/>
      <point x="348.5532" y="612.7078"/>
      <point x="397.1116" y="652.7412" type="curve"/>
      <point x="428.0124" y="637.2444" type="line"/>
      <point x="409.2512" y="611.4164"/>
      <point x="390.49" y="567.5088"/>
      <point x="362.9" y="528.7668" type="curve"/>
      <point x="295.5804" y="523.6012"/>
      <point x="211.7068" y="549.4292"/>
    </contour>
    <component base="u"/>
    <contour>
      <point x="274.612" y="319.56" type="move" name="_top"/>
    </contour>
    <contour>
      <point x="274.612" y="672.1122" type="move" name="top"/>
    </contour>
  </outline>
</glyph>
<glyph name="longs" format="1">
  <advance width="259"/>
  <unicode hex="017F"/>
  <outline>
    <contour>
      <point x="163" y="395" type="line"/>
      <point x="124" y="360" type="line"/>
      <point x="30" y="360" type="line"/>
      <point x="30" y="374" type="line"/>
      <point x="85" y="414" type="line"/>
      <point x="85" y="414" type="line"/>
      <point x="163" y="414" type="line"/>
    </contour>
    <contour>
      <point x="181" y="1" type="curve"/>
      <point x="68" y="-10" type="line"/>
      <point x="71" y="185"/>
      <point x="75" y="301"/>
      <point x="75" y="497" type="curve"/>
      <point x="75" y="535"/>
      <point x="210" y="712"/>
      <point x="273" y="712" type="curve"/>
      <point x="397" y="684" type="line"/>
      <point x="399" y="667" type="line"/>
      <point x="329" y="594" type="line"/>
      <point x="275" y="623"/>
      <point x="173" y="648"/>
      <point x="173" y="557" type="curve"/>
      <point x="173" y="352"/>
      <point x="171" y="205"/>
    </contour>
    <contour>
      <point x="194" y="1" type="move" name="bottom"/>
    </contour>
    <contour>
      <point x="194" y="445" type="move" name="top"/>
    </contour>
  </outline>
</glyph>
<glyph name="tilde" format="1">
  <advance width="301"/>
  <unicode hex="02DC"/>
  <outline>
    <contour>
      <point x="46" y="544" type="curve"/>
      <point x="20" y="552" type="line"/>
      <point x="20" y="591"/>
      <point x="44" y="666"/>
      <point x="89" y="666" type="curve"/>
      <point x="126" y="666"/>
      <point x="176" y="636"/>
      <point x="207" y="636" type="curve"/>
      <point x="233" y="636"/>
      <point x="236" y="653"/>
      <point x="253" y="674" type="curve"/>
      <point x="281" y="666" type="line"/>
      <point x="270" y="617"/>
      <point x="247" y="549"/>
      <point x="215" y="549" type="curve"/>
      <point x="173" y="549"/>
      <point x="121" y="583"/>
      <point x="93" y="583" type="curve"/>
      <point x="66" y="583"/>
      <point x="56" y="568"/>
    </contour>
  </outline>
</glyph>
<glyph name="macr" format="1">
  <advance width="359"/>
  <unicode hex="0304"/>
  <outline>
    <contour>
      <point x="64" y="545" type="curve"/>
      <point x="40" y="558" type="line"/>
      <point x="54" y="582"/>
      <point x="76" y="610"/>
      <point x="106" y="639" type="curve"/>
      <point x="184" y="639"/>
      <point x="237" y="627"/>
      <point x="281" y="658" type="curve"/>
      <point x="309" y="646" type="line"/>
      <point x="292" y="626"/>
      <point x="275" y="592"/>
      <point x="250" y="562" type="curve"/>
      <point x="189" y="558"/>
      <point x="113" y="578"/>
    </contour>
    <contour>
      <point x="170" y="400" type="move" name="_top"/>
    </contour>
    <contour>
      <point x="170" y="673" type="move" name="top"/>
    </contour>
  </outline>
</glyph>
<glyph name="hook" format="1">
  <advance width="280"/>
  <unicode hex="0309"/>
  <outline>
    <contour>
      <point x="83" y="600" type="line"/>
      <point x="85" y="580" type="line"/>
      <point x="129" y="584"/>
      <point x="175" y="583"/>
      <point x="175" y="541" type="curve"/>
      <point x="175" y="526"/>
      <point x="165" y="515"/>
      <point x="150" y="492" type="curve"/>
      <point x="167" y="477" type="line"/>
      <point x="196" y="501"/>
      <point x="224" y="531"/>
      <point x="254" y="572" type="curve"/>
      <point x="264" y="644"/>
      <point x="217" y="671"/>
      <point x="148" y="671" type="curve"/>
    </contour>
    <contour>
      <point x="158" y="400" type="move" name="_top"/>
    </contour>
    <contour>
      <point x="158" y="716" type="move" name="top"/>
    </contour>
  </outline>
</glyph>
<glyph name="ring" format="1">
  <advance width="262"/>
  <unicode hex="030A"/>
  <outline>
    <contour>
      <point x="131" y="538" type="curve"/>
      <point x="192" y="538"/>
      <point x="242" y="588"/>
      <point x="242" y="649" type="curve"/>
      <point x="242" y="710"/>
      <point x="192" y="760"/>
      <point x="131" y="760" type="curve"/>
      <point x="70" y="760"/>
      <point x="20" y="710"/>
      <point x="20" y="649" type="curve"/>
      <point x="20" y="588"/>
      <point x="70" y="538"/>
    </contour>
    <contour>
      <point x="132" y="584" type="curve"/>
      <point x="95" y="584"/>
      <point x="67" y="613"/>
      <point x="67" y="649" type="curve"/>
      <point x="67" y="685"/>
      <point x="95" y="714"/>
      <point x="132" y="714" type="curve"/>
      <point x="168" y="714"/>
      <point x="196" y="685"/>
      <point x="196" y="649" type="curve"/>
      <point x="196" y="613"/>
      <point x="168" y="584"/>
    </contour>
  </outline>
</glyph>
<glyph name="p_bardes" format="1">
  <advance width="610"/>
  <unicode hex="A750"/>
  <outline>
    <contour>
      <point x="465.78" y="-66.71" type="curve"/>
      <point x="501.3" y="-82.25" type="line"/>
      <point x="479.1" y="-136.64"/>
      <point x="440.25" y="-173.27"/>
      <point x="419.16" y="-173.27" type="curve"/>
      <point x="253.77" y="-173.27"/>
      <point x="144.99" y="-172.16"/>
      <point x="35.1" y="-183.26" type="curve"/>
      <point x="43.98" y="-145.52" type="line"/>
      <point x="217.14" y="-136.64"/>
      <point x="396.96" y="-136.64"/>
    </contour>
    <component base="p" xOffset="30"/>
  </outline>
</glyph>
<glyph name="Q_bardes" format="1">
  <advance width="1009"/>
  <unicode hex="A758"/>
  <outline>
    <contour>
      <point x="880" y="363" type="curve"/>
      <point x="851" y="347" type="line"/>
      <point x="889" y="283"/>
      <point x="891" y="247"/>
      <point x="891" y="193" type="curve"/>
      <point x="891" y="53"/>
      <point x="782" y="-30"/>
      <point x="620" y="-163" type="curve"/>
      <point x="654" y="-189" type="line"/>
      <point x="829" y="-35"/>
      <point x="964" y="99"/>
      <point x="964" y="204" type="curve"/>
      <point x="964" y="263"/>
      <point x="915" y="323"/>
    </contour>
    <contour>
      <point x="421" y="43" type="curve"/>
      <point x="267" y="43"/>
      <point x="141" y="170"/>
      <point x="141" y="361" type="curve"/>
      <point x="141" y="526"/>
      <point x="228" y="668"/>
      <point x="377" y="668" type="curve"/>
      <point x="531" y="668"/>
      <point x="657" y="522"/>
      <point x="657" y="331" type="curve"/>
      <point x="657" y="166"/>
      <point x="569" y="43"/>
    </contour>
    <contour>
      <point x="24" y="341" type="curve"/>
      <point x="24" y="189"/>
      <point x="106" y="94"/>
      <point x="227" y="21" type="curve"/>
      <point x="309" y="-29"/>
      <point x="392" y="-77"/>
      <point x="505" y="-77" type="curve"/>
      <point x="607" y="-77"/>
      <point x="667" y="-58"/>
      <point x="763" y="-57" type="curve"/>
      <point x="813" y="-56"/>
      <point x="843" y="-101"/>
      <point x="861" y="-101" type="curve"/>
      <point x="885" y="-101"/>
      <point x="960" y="-62"/>
      <point x="1009" y="-27" type="curve"/>
      <point x="993" y="-6" type="line"/>
      <point x="892" y="-52"/>
      <point x="871" y="7"/>
      <point x="825" y="7" type="curve"/>
      <point x="749" y="7"/>
      <point x="581" y="-25"/>
      <point x="512" y="-25" type="curve"/>
      <point x="460" y="-25"/>
      <point x="397" y="-8"/>
      <point x="382" y="12" type="curve"/>
      <point x="397" y="-8" type="line"/>
      <point x="607" y="11"/>
      <point x="771" y="164"/>
      <point x="771" y="361" type="curve"/>
      <point x="771" y="576"/>
      <point x="602" y="711"/>
      <point x="399" y="711" type="curve"/>
      <point x="191" y="711"/>
      <point x="24" y="534"/>
    </contour>
    <contour>
      <point x="505" y="0" type="move" name="bottom"/>
    </contour>
    <contour>
      <point x="429" y="350" type="move" name="center"/>
    </contour>
    <contour>
      <point x="753" y="10" type="move" name="ogonek"/>
    </contour>
    <contour>
      <point x="505" y="700" type="move" name="top"/>
    </contour>
    <contour>
      <point x="43" y="700" type="move" name="topleft"/>
    </contour>
    <contour>
      <point x="815" y="700" type="move" name="topright"/>
    </contour>
  </outline>
</glyph>
<glyph name="etfin" format="1">
  <advance width="341"/>
  <unicode hex="A76B"/>
  <outline>
    <contour>
      <point x="221" y="457" type="curve"/>
      <point x="176" y="457"/>
      <point x="92" y="436"/>
      <point x="36" y="418" type="curve"/>
      <point x="46" y="385" type="line"/>
      <point x="84" y="389" type="line" smooth="yes"/>
      <point x="139" y="396"/>
      <point x="207" y="356"/>
      <point x="207" y="311" type="curve"/>
      <point x="207" y="245"/>
      <point x="68" y="149"/>
      <point x="22" y="103" type="curve"/>
      <point x="40" y="80" type="line"/>
      <point x="130" y="133"/>
      <point x="225" y="56"/>
      <point x="225" y="-47" type="curve"/>
      <point x="225" y="-118"/>
      <point x="193" y="-151"/>
      <point x="167" y="-182" type="curve"/>
      <point x="138" y="-191"/>
      <point x="79" y="-189"/>
      <point x="40" y="-182" type="curve"/>
      <point x="15" y="-267" type="line"/>
      <point x="39" y="-279"/>
      <point x="86" y="-288"/>
      <point x="121" y="-287" type="curve"/>
      <point x="177" y="-240"/>
      <point x="326" y="-85"/>
      <point x="326" y="22" type="curve"/>
      <point x="326" y="117"/>
      <point x="259" y="181"/>
      <point x="170" y="181" type="curve"/>
      <point x="212" y="233"/>
      <point x="323" y="331"/>
      <point x="323" y="361" type="curve"/>
      <point x="323" y="418"/>
      <point x="234" y="457"/>
    </contour>
  </outline>
</glyph>
<glyph name="con" format="1">
  <advance width="518"/>
  <unicode hex="A76F"/>
  <outline>
    <contour>
      <point x="145" y="309" type="curve"/>
      <point x="45" y="259" type="line"/>
      <point x="34" y="374"/>
      <point x="151" y="456"/>
      <point x="258" y="456" type="curve"/>
      <point x="377" y="456"/>
      <point x="483" y="385"/>
      <point x="483" y="257" type="curve"/>
      <point x="483" y="86"/>
      <point x="350" y="-12"/>
      <point x="214" y="-12" type="curve"/>
      <point x="156" y="-12"/>
      <point x="112" y="6"/>
      <point x="77" y="32" type="curve"/>
      <point x="40" y="-10" type="line"/>
      <point x="10" y="7" type="line"/>
      <point x="125" y="154" type="line"/>
      <point x="149" y="134" type="line"/>
      <point x="115" y="86" type="line"/>
      <point x="138" y="65"/>
      <point x="171" y="38"/>
      <point x="229" y="38" type="curve"/>
      <point x="313" y="38"/>
      <point x="370" y="131"/>
      <point x="370" y="235" type="curve"/>
      <point x="370" y="339"/>
      <point x="319" y="407"/>
      <point x="246" y="407" type="curve"/>
      <point x="183" y="407"/>
      <point x="145" y="369"/>
    </contour>
  </outline>
</glyph>
<glyph name="usmod" format="1">
  <advance width="423"/>
  <unicode hex="A770"/>
  <outline>
    <contour>
      <point x="70" y="448" type="curve"/>
      <point x="70" y="485"/>
      <point x="80" y="512"/>
      <point x="102" y="537" type="curve"/>
      <point x="157" y="582"/>
      <point x="263" y="624"/>
      <point x="300" y="634" type="curve"/>
      <point x="390" y="598"/>
      <point x="416" y="544"/>
      <point x="428" y="476" type="curve"/>
      <point x="382" y="312"/>
      <point x="278" y="206"/>
      <point x="126" y="0" type="curve"/>
      <point x="82" y="0" type="line"/>
      <point x="82" y="24" type="line"/>
      <point x="199" y="173"/>
      <point x="317" y="325"/>
      <point x="317" y="459" type="curve"/>
      <point x="317" y="519"/>
      <point x="286" y="565"/>
      <point x="231" y="565" type="curve"/>
      <point x="186" y="565"/>
      <point x="160" y="511"/>
      <point x="160" y="467" type="curve"/>
      <point x="160" y="392"/>
      <point x="233" y="350"/>
      <point x="340" y="396" type="curve"/>
      <point x="341" y="365" type="line"/>
      <point x="270" y="343"/>
      <point x="244" y="329"/>
      <point x="179" y="319" type="curve"/>
      <point x="122" y="329"/>
      <point x="70" y="383"/>
    </contour>
    <contour>
      <point x="253" y="0" type="line"/>
      <point x="117" y="0" type="line"/>
      <point x="127" y="39" type="line"/>
      <point x="254" y="30" type="line"/>
    </contour>
  </outline>
</glyph>
<glyph name="longs_longs" format="1">
  <advance width="473"/>
  <unicode hex="EBA6"/>
  <outline>
    <contour>
      <point x="179" y="1" type="curve"/>
      <point x="73" y="-10" type="line"/>
      <point x="75" y="185"/>
      <point x="79" y="301"/>
      <point x="79" y="497" type="curve"/>
      <point x="79" y="535"/>
      <point x="208" y="712"/>
      <point x="271" y="712" type="curve"/>
      <point x="417" y="673" type="line"/>
      <point x="418" y="656" type="line"/>
      <point x="348" y="583" type="line"/>
      <point x="272" y="623"/>
      <point x="171" y="648"/>
      <point x="171" y="557" type="curve"/>
      <point x="171" y="352"/>
      <point x="169" y="205"/>
    </contour>
    <contour>
      <point x="396" y="1" type="curve"/>
      <point x="289" y="-10" type="line"/>
      <point x="291" y="185"/>
      <point x="296" y="301"/>
      <point x="296" y="497" type="curve"/>
      <point x="296" y="535"/>
      <point x="424" y="712"/>
      <point x="488" y="712" type="curve"/>
      <point x="612" y="684" type="line"/>
      <point x="613" y="667" type="line"/>
      <point x="543" y="594" type="line"/>
      <point x="490" y="623"/>
      <point x="388" y="648"/>
      <point x="388" y="557" type="curve"/>
      <point x="388" y="352"/>
      <point x="386" y="205"/>
    </contour>
    <contour>
      <point x="163" y="395" type="line"/>
      <point x="124" y="360" type="line"/>
      <point x="30" y="360" type="line"/>
      <point x="30" y="374" type="line"/>
      <point x="85" y="414" type="line"/>
      <point x="85" y="414" type="line"/>
      <point x="163" y="414" type="line"/>
    </contour>
    <contour>
      <point x="382" y="395" type="line"/>
      <point x="343" y="360" type="line"/>
      <point x="249" y="360" type="line"/>
      <point x="249" y="374" type="line"/>
      <point x="304" y="414" type="line"/>
      <point x="304" y="414" type="line"/>
      <point x="382" y="414" type="line"/>
    </contour>
    <contour>
      <point x="212" y="1" type="move" name="bottom"/>
    </contour>
    <contour>
      <point x="60" y="1" type="move" name="bottom_1"/>
    </contour>
    <contour>
      <point x="429" y="1" type="move" name="bottom_2"/>
    </contour>
    <contour>
      <point x="245" y="1" type="move" name="caret_1"/>
    </contour>
    <contour>
      <point x="212" y="445" type="move" name="top"/>
    </contour>
    <contour>
      <point x="60" y="445" type="move" name="top_1"/>
    </contour>
    <contour>
      <point x="429" y="445" type="move" name="top_2"/>
    </contour>
  </outline>
</glyph>
<glyph name="c_t" format="1">
  <advance width="712"/>
  <unicode hex="EEC5"/>
  <outline>
    <contour>
      <point x="330" y="400" type="curve"/>
      <point x="362" y="408" type="line"/>
      <point x="340" y="442"/>
      <point x="332" y="475"/>
      <point x="332" y="517" type="curve"/>
      <point x="332" y="577"/>
      <point x="369" y="621"/>
      <point x="430" y="621" type="curve"/>
      <point x="490" y="621"/>
      <point x="515" y="583"/>
      <point x="516" y="531" type="curve"/>
      <point x="517" y="449"/>
      <point x="497" y="408"/>
      <point x="418" y="364" type="curve"/>
      <point x="421" y="344" type="line"/>
      <point x="524" y="345" type="line"/>
      <point x="589" y="378" type="line"/>
      <point x="589" y="543" type="line" smooth="yes"/>
      <point x="589" y="625"/>
      <point x="542" y="664"/>
      <point x="445" y="666" type="curve"/>
      <point x="338" y="668"/>
      <point x="291" y="595"/>
      <point x="291" y="534" type="curve"/>
      <point x="291" y="482"/>
      <point x="303" y="454"/>
    </contour>
    <contour>
      <point x="708" y="416" type="line"/>
      <point x="585" y="416" type="line"/>
      <point x="585" y="502" type="line"/>
      <point x="560" y="502" type="line"/>
      <point x="541" y="472"/>
      <point x="506" y="417"/>
      <point x="471" y="377" type="curve"/>
      <point x="471" y="375" type="line"/>
      <point x="496" y="344" type="line"/>
      <point x="496" y="83" type="line" smooth="yes"/>
      <point x="496" y="26"/>
      <point x="557" y="-9"/>
      <point x="596" y="-10" type="curve"/>
      <point x="619" y="-10"/>
      <point x="716" y="50"/>
      <point x="716" y="50" type="curve"/>
      <point x="710" y="75" type="line"/>
      <point x="644" y="61"/>
      <point x="585" y="60"/>
      <point x="585" y="137" type="curve"/>
      <point x="585" y="200"/>
      <point x="586" y="283"/>
      <point x="587" y="346" type="curve"/>
      <point x="708" y="346" type="line"/>
    </contour>
    <contour>
      <point x="361" y="399" type="line"/>
      <point x="362" y="408" type="line"/>
      <point x="322" y="428"/>
      <point x="286" y="446"/>
      <point x="250" y="446" type="curve"/>
      <point x="153" y="446"/>
      <point x="59" y="345"/>
      <point x="45" y="297" type="curve"/>
      <point x="7" y="130"/>
      <point x="83" y="-8"/>
      <point x="218" y="-8" type="curve"/>
      <point x="300" y="-8"/>
      <point x="396" y="47"/>
      <point x="449" y="85" type="curve"/>
      <point x="437" y="112" type="line"/>
      <point x="374" y="84"/>
      <point x="327" y="73"/>
      <point x="275" y="73" type="curve"/>
      <point x="181" y="73"/>
      <point x="126" y="137"/>
      <point x="126" y="244" type="curve"/>
      <point x="126" y="313"/>
      <point x="147" y="369"/>
      <point x="193" y="387" type="curve"/>
      <point x="231" y="376"/>
      <point x="272" y="346"/>
      <point x="307" y="317" type="curve"/>
    </contour>
    <contour>
      <point x="609" y="1" type="move" name="bottom"/>
    </contour>
    <contour>
      <point x="263" y="1" type="move" name="bottom_1"/>
    </contour>
    <contour>
      <point x="597" y="1" type="move" name="bottom_2"/>
    </contour>
    <contour>
      <point x="430" y="1" type="move" name="caret_1"/>
    </contour>
    <contour>
      <point x="609" y="223" type="move" name="center"/>
    </contour>
    <contour>
      <point x="609" y="445" type="move" name="top"/>
    </contour>
    <contour>
      <point x="263" y="445" type="move" name="top_1"/>
    </contour>
    <contour>
      <point x="597" y="445" type="move" name="top_2"/>
    </contour>
    <contour>
      <point x="741" y="445" type="move" name="topright"/>
    </contour>
  </outline>
</glyph>
<glyph name="p_p_flour" format="1">
  <advance width="1022"/>
  <unicode hex="EED7"/>
  <outline>
    <contour>
      <point x="480" y="365" type="curve"/>
      <point x="478" y="385" type="line"/>
      <point x="509" y="457" type="line"/>
      <point x="579" y="436"/>
      <point x="687" y="361"/>
      <point x="687" y="335" type="curve"/>
      <point x="695" y="-277" type="line"/>
      <point x="588" y="-277" type="line"/>
      <point x="593" y="-201"/>
      <point x="599" y="144"/>
      <point x="599" y="232" type="curve"/>
      <point x="599" y="299"/>
      <point x="544" y="365"/>
    </contour>
    <contour>
      <point x="763" y="46" type="curve"/>
      <point x="853" y="46"/>
      <point x="899" y="102"/>
      <point x="899" y="204" type="curve"/>
      <point x="899" y="287"/>
      <point x="839" y="358"/>
      <point x="763" y="358" type="curve"/>
      <point x="711" y="358"/>
      <point x="674" y="328"/>
      <point x="649" y="295" type="curve"/>
      <point x="625" y="345" type="line"/>
      <point x="692" y="377"/>
      <point x="771" y="434"/>
      <point x="811" y="457" type="curve"/>
      <point x="916" y="417"/>
      <point x="991" y="346"/>
      <point x="987" y="227" type="curve"/>
      <point x="983" y="105"/>
      <point x="811" y="-13"/>
      <point x="763" y="-10" type="curve"/>
      <point x="600" y="0" type="line"/>
      <point x="614" y="98" type="line"/>
      <point x="645" y="65"/>
      <point x="706" y="46"/>
    </contour>
    <component base="p_flour"/>
  </outline>
</glyph>
<glyph name="longs_t" format="1">
  <advance width="602"/>
  <unicode hex="FB05"/>
  <outline>
    <contour>
      <point x="30" y="395" type="line"/>
      <point x="30" y="381" type="line"/>
      <point x="80" y="380" type="line"/>
      <point x="78" y="250"/>
      <point x="76" y="120"/>
      <point x="74" y="-10" type="curve"/>
      <point x="185" y="1" type="line"/>
      <point x="175" y="205"/>
      <point x="177" y="271"/>
      <point x="177" y="475" type="curve"/>
      <point x="177" y="566"/>
      <point x="181" y="603"/>
      <point x="233" y="642" type="curve"/>
      <point x="310" y="642"/>
      <point x="401" y="605"/>
      <point x="401" y="525" type="curve"/>
      <point x="401" y="475"/>
      <point x="391" y="448"/>
      <point x="349" y="399" type="curve"/>
      <point x="349" y="389" type="line"/>
      <point x="374" y="358" type="line"/>
      <point x="373" y="101" type="line" smooth="yes"/>
      <point x="373" y="44"/>
      <point x="435" y="-9"/>
      <point x="474" y="-10" type="curve"/>
      <point x="521" y="23"/>
      <point x="590" y="60"/>
      <point x="590" y="60" type="curve"/>
      <point x="585" y="85" type="line"/>
      <point x="485" y="71"/>
      <point x="477" y="90"/>
      <point x="473" y="167" type="curve"/>
      <point x="470" y="230"/>
      <point x="466" y="304"/>
      <point x="469" y="367" type="curve"/>
      <point x="572" y="370" type="line"/>
      <point x="606" y="434" type="line"/>
      <point x="602" y="445" type="line"/>
      <point x="473" y="445" type="line"/>
      <point x="471" y="508"/>
      <point x="476" y="570"/>
      <point x="490" y="633" type="curve"/>
      <point x="447" y="677"/>
      <point x="365" y="709"/>
      <point x="278" y="709" type="curve"/>
      <point x="215" y="680"/>
      <point x="131" y="626"/>
      <point x="81" y="577" type="curve"/>
      <point x="80" y="435" type="line"/>
    </contour>
    <contour>
      <point x="218" y="1" type="move" name="bottom"/>
    </contour>
    <contour>
      <point x="307" y="1" type="move" name="caret_1"/>
    </contour>
    <contour>
      <point x="487" y="223" type="move" name="center"/>
    </contour>
    <contour>
      <point x="218" y="445" type="move" name="top"/>
    </contour>
    <contour>
      <point x="619" y="445" type="move" name="topright"/>
    </contour>
  </outline>
</glyph>
<glyph name="A.ss01" format="1">
  <advance width="675"/>
  <outline>
    <contour>
      <point x="6" y="25" type="line"/>
      <point x="5" y="0" type="line"/>
      <point x="68" y="0" type="line"/>
      <point x="68" y="38"/>
      <point x="228" y="428"/>
      <point x="324" y="657" type="curve"/>
      <point x="311" y="657" type="line"/>
      <point x="409" y="369"/>
      <point x="504" y="96"/>
      <point x="525" y="-6" type="curve"/>
      <point x="565" y="3"/>
      <point x="679" y="52"/>
      <point x="679" y="51" type="curve"/>
      <point x="673" y="76" type="line"/>
      <point x="625" y="74"/>
      <point x="616" y="79"/>
      <point x="602" y="115" type="curve"/>
      <point x="526" y="310"/>
      <point x="426" y="635"/>
      <point x="410" y="704" type="curve"/>
      <point x="316" y="696"/>
      <point x="223" y="692"/>
      <point x="125" y="690" type="curve"/>
      <point x="125" y="649" type="line"/>
      <point x="177" y="649"/>
      <point x="220" y="654"/>
      <point x="272" y="654" type="curve"/>
    </contour>
    <contour>
      <point x="185" y="363" type="line"/>
      <point x="155" y="308" type="line"/>
      <point x="206" y="234"/>
      <point x="247" y="143"/>
      <point x="288" y="69" type="curve"/>
      <point x="300" y="69" type="line"/>
      <point x="340" y="140"/>
      <point x="421" y="291"/>
      <point x="481" y="362" type="curve"/>
      <point x="457" y="406" type="line"/>
      <point x="397" y="312"/>
      <point x="339" y="240"/>
      <point x="278" y="153" type="curve"/>
      <point x="326" y="139" type="line"/>
    </contour>
    <contour>
      <point x="320" y="0" type="move" name="bottom"/>
    </contour>
    <contour>
      <point x="576" y="10" type="move" name="ogonek"/>
    </contour>
    <contour>
      <point x="320" y="700" type="move" name="top"/>
    </contour>
  </outline>
</glyph>
<glyph name="B.ss01" format="1">
  <advance width="665"/>
  <outline>
    <contour>
      <point x="50" y="13" type="curve"/>
      <point x="38" y="35" type="line"/>
      <point x="94" y="58"/>
      <point x="132" y="92"/>
      <point x="132" y="175" type="curve"/>
      <point x="132" y="226"/>
      <point x="135" y="470"/>
      <point x="132" y="564" type="curve"/>
      <point x="129" y="645"/>
      <point x="103" y="636"/>
      <point x="25" y="665" type="curve"/>
      <point x="28" y="690" type="line"/>
      <point x="157" y="678"/>
      <point x="252" y="711"/>
      <point x="348" y="711" type="curve"/>
      <point x="507" y="711"/>
      <point x="565" y="650"/>
      <point x="572" y="557" type="curve"/>
      <point x="541" y="533"/>
      <point x="473" y="498"/>
      <point x="421" y="452" type="curve"/>
      <point x="544" y="444"/>
      <point x="640" y="353"/>
      <point x="640" y="231" type="curve"/>
      <point x="640" y="79"/>
      <point x="484" y="-6"/>
      <point x="352" y="-6" type="curve"/>
      <point x="267" y="-6"/>
      <point x="187" y="39"/>
      <point x="146" y="39" type="curve"/>
      <point x="109" y="39"/>
      <point x="84" y="25"/>
    </contour>
    <contour>
      <point x="232" y="646" type="curve"/>
      <point x="232" y="63" type="line"/>
      <point x="267" y="46"/>
      <point x="301" y="34"/>
      <point x="354" y="34" type="curve"/>
      <point x="478" y="34"/>
      <point x="537" y="109"/>
      <point x="537" y="218" type="curve"/>
      <point x="537" y="329"/>
      <point x="466" y="395"/>
      <point x="351" y="397" type="curve"/>
      <point x="301" y="398"/>
      <point x="263" y="383"/>
      <point x="224" y="361" type="curve"/>
      <point x="222" y="407" type="line"/>
      <point x="366" y="439"/>
      <point x="454" y="506"/>
      <point x="454" y="567" type="curve"/>
      <point x="454" y="636"/>
      <point x="390" y="670"/>
      <point x="336" y="670" type="curve"/>
      <point x="296" y="670"/>
      <point x="263" y="660"/>
    </contour>
    <contour>
      <point x="333" y="0" type="move" name="bottom"/>
    </contour>
    <contour>
      <point x="333" y="700" type="move" name="top"/>
    </contour>
  </outline>
</glyph>
<glyph name="D.ss01" format="1">
  <advance width="808"/>
  <outline>
    <contour>
      <point x="126" y="593" type="curve"/>
      <point x="135" y="440"/>
      <point x="127" y="296"/>
      <point x="124" y="108" type="curve"/>
      <point x="123" y="40"/>
      <point x="56" y="37"/>
      <point x="25" y="27" type="curve"/>
      <point x="37" y="-6" type="line"/>
      <point x="37" y="-6"/>
      <point x="81" y="26"/>
      <point x="164" y="26" type="curve"/>
      <point x="202" y="26"/>
      <point x="301" y="10"/>
      <point x="435" y="-5" type="curve"/>
      <point x="492" y="17"/>
      <point x="788" y="137"/>
      <point x="788" y="387" type="curve"/>
      <point x="788" y="638"/>
      <point x="578" y="711"/>
      <point x="408" y="711" type="curve"/>
      <point x="295" y="711"/>
      <point x="113" y="700"/>
      <point x="30" y="718" type="curve"/>
      <point x="20" y="689" type="line"/>
      <point x="93" y="668"/>
      <point x="123" y="646"/>
    </contour>
    <contour>
      <point x="670" y="351" type="curve"/>
      <point x="670" y="90"/>
      <point x="462" y="13"/>
      <point x="238" y="64" type="curve"/>
      <point x="232" y="227"/>
      <point x="228" y="458"/>
      <point x="242" y="670" type="curve"/>
      <point x="529" y="698"/>
      <point x="670" y="590"/>
    </contour>
  </outline>
</glyph>
<glyph name="D.ss02" format="1">
  <advance width="895"/>
  <outline>
    <contour>
      <point x="0" y="592" type="curve"/>
      <point x="0" y="548"/>
      <point x="81" y="517"/>
      <point x="196" y="517" type="curve"/>
      <point x="272" y="517"/>
      <point x="294" y="530"/>
      <point x="353" y="530" type="curve"/>
      <point x="377" y="530"/>
      <point x="401" y="529"/>
      <point x="422" y="519" type="curve"/>
      <point x="257" y="482"/>
      <point x="123" y="325"/>
      <point x="123" y="154" type="curve"/>
      <point x="123" y="-61"/>
      <point x="292" y="-196"/>
      <point x="495" y="-196" type="curve"/>
      <point x="703" y="-196"/>
      <point x="870" y="-19"/>
      <point x="870" y="174" type="curve"/>
      <point x="870" y="313"/>
      <point x="789" y="416"/>
      <point x="696" y="477" type="curve"/>
      <point x="629" y="521"/>
      <point x="476" y="592"/>
      <point x="449" y="602" type="curve"/>
      <point x="347" y="595"/>
      <point x="297" y="583"/>
      <point x="231" y="582" type="curve"/>
      <point x="107" y="580"/>
      <point x="72" y="622"/>
      <point x="110" y="679" type="curve"/>
      <point x="84" y="687" type="line"/>
      <point x="52" y="657"/>
      <point x="0" y="622"/>
    </contour>
    <contour>
      <point x="237" y="184" type="curve"/>
      <point x="237" y="349"/>
      <point x="325" y="481"/>
      <point x="473" y="481" type="curve"/>
      <point x="627" y="481"/>
      <point x="753" y="345"/>
      <point x="753" y="154" type="curve"/>
      <point x="753" y="-11"/>
      <point x="666" y="-153"/>
      <point x="517" y="-153" type="curve"/>
      <point x="363" y="-153"/>
      <point x="237" y="-7"/>
    </contour>
    <contour>
      <point x="465" y="-185" type="move" name="bottom"/>
    </contour>
    <contour>
      <point x="79" y="-185" type="move" name="bottomleft"/>
    </contour>
    <contour>
      <point x="851" y="-185" type="move" name="bottomright"/>
    </contour>
    <contour>
      <point x="465" y="165" type="move" name="center"/>
    </contour>
    <contour>
      <point x="141" y="505" type="move" name="ogonek"/>
    </contour>
    <contour>
      <point x="465" y="515" type="move" name="top"/>
    </contour>
  </outline>
</glyph>
<glyph name="L.ss01" format="1">
  <advance width="703"/>
  <outline>
    <contour>
      <point x="20" y="700" type="line"/>
      <point x="20" y="670" type="line"/>
      <point x="79" y="652"/>
      <point x="88" y="631"/>
      <point x="94" y="533" type="curve"/>
      <point x="103" y="389"/>
      <point x="118" y="60"/>
      <point x="59" y="-1" type="curve"/>
      <point x="74" y="-23" type="line"/>
      <point x="169" y="28"/>
      <point x="495" y="23"/>
      <point x="628" y="-13" type="curve"/>
      <point x="703" y="109" type="line"/>
      <point x="678" y="124" type="line"/>
      <point x="658" y="105"/>
      <point x="637" y="102"/>
      <point x="577" y="102" type="curve"/>
      <point x="522" y="102"/>
      <point x="432" y="115"/>
      <point x="337" y="115" type="curve"/>
      <point x="280" y="115"/>
      <point x="169" y="57"/>
      <point x="132" y="43" type="curve"/>
      <point x="170" y="178"/>
      <point x="236" y="293"/>
      <point x="216" y="700" type="curve"/>
    </contour>
    <contour>
      <point x="362" y="696" type="curve"/>
      <point x="312" y="699" type="line"/>
      <point x="307" y="476"/>
      <point x="310" y="254"/>
      <point x="319" y="31" type="curve"/>
      <point x="358" y="31" type="line"/>
      <point x="353" y="254"/>
      <point x="352" y="473"/>
    </contour>
    <contour>
      <point x="352" y="0" type="move" name="bottom"/>
    </contour>
    <contour>
      <point x="352" y="350" type="move" name="center"/>
    </contour>
    <contour>
      <point x="361" y="696" type="move" name="top"/>
    </contour>
    <contour>
      <point x="683" y="700" type="move" name="topright"/>
    </contour>
  </outline>
</glyph>
<glyph name="M.ss01" format="1">
  <advance width="772"/>
  <outline>
    <contour>
      <point x="338" y="60" type="line"/>
      <point x="391" y="60" type="line"/>
      <point x="391" y="96"/>
      <point x="448" y="288"/>
      <point x="516" y="519" type="curve"/>
      <point x="573" y="256"/>
      <point x="608" y="88"/>
      <point x="618" y="-10" type="curve"/>
      <point x="662" y="-1"/>
      <point x="776" y="27"/>
      <point x="776" y="26" type="curve"/>
      <point x="770" y="51" type="line"/>
      <point x="742" y="49"/>
      <point x="728" y="58"/>
      <point x="722" y="80" type="curve"/>
      <point x="674" y="257"/>
      <point x="582" y="645"/>
      <point x="565" y="700" type="curve"/>
      <point x="515" y="700" type="line"/>
    </contour>
    <contour>
      <point x="1" y="0" type="line"/>
      <point x="65" y="0" type="line"/>
      <point x="100" y="177"/>
      <point x="142" y="297"/>
      <point x="210" y="528" type="curve"/>
      <point x="267" y="315"/>
      <point x="328" y="158"/>
      <point x="338" y="60" type="curve"/>
      <point x="402" y="206" type="line"/>
      <point x="362" y="383"/>
      <point x="265" y="645"/>
      <point x="258" y="700" type="curve"/>
      <point x="208" y="700" type="line"/>
      <point x="0" y="15" type="line"/>
    </contour>
    <contour>
      <point x="386" y="0" type="move" name="bottom"/>
    </contour>
    <contour>
      <point x="386" y="700" type="move" name="top"/>
    </contour>
  </outline>
</glyph>
<glyph name="N.ss01" format="1">
  <advance width="801"/>
  <outline>
    <contour>
      <point x="30" y="30" type="curve"/>
      <point x="30" y="0" type="line"/>
      <point x="279" y="0" type="line"/>
      <point x="279" y="30" type="line"/>
      <point x="156" y="39"/>
      <point x="163" y="50"/>
      <point x="161" y="95" type="curve"/>
      <point x="157" y="187"/>
      <point x="151" y="495"/>
      <point x="159" y="561" type="curve"/>
      <point x="145" y="533" type="line"/>
      <point x="186" y="487"/>
      <point x="527" y="124"/>
      <point x="631" y="0" type="curve"/>
      <point x="672" y="0" type="line"/>
      <point x="676" y="111"/>
      <point x="675" y="452"/>
      <point x="680" y="630" type="curve"/>
      <point x="681" y="666"/>
      <point x="708" y="659"/>
      <point x="771" y="674" type="curve"/>
      <point x="771" y="700" type="line"/>
      <point x="568" y="700" type="line"/>
      <point x="568" y="674" type="line"/>
      <point x="613" y="659"/>
      <point x="623" y="655"/>
      <point x="624" y="630" type="curve"/>
      <point x="629" y="504"/>
      <point x="633" y="197"/>
      <point x="626" y="138" type="curve"/>
      <point x="634" y="172" type="line"/>
      <point x="581" y="225"/>
      <point x="189" y="651"/>
      <point x="144" y="700" type="curve"/>
      <point x="102" y="700" type="line"/>
      <point x="109" y="592"/>
      <point x="115" y="182"/>
      <point x="107" y="90" type="curve"/>
      <point x="104" y="54"/>
      <point x="93" y="45"/>
    </contour>
    <contour>
      <point x="401" y="0" type="move" name="bottom"/>
    </contour>
    <contour>
      <point x="401" y="700" type="move" name="top"/>
    </contour>
  </outline>
</glyph>
<glyph name="P.ss01" format="1">
  <advance width="787"/>
  <outline>
    <contour>
      <point x="229" y="691" type="curve"/>
      <point x="215" y="469"/>
      <point x="228" y="-67"/>
      <point x="235" y="-230" type="curve"/>
      <point x="111" y="-230" type="line"/>
      <point x="116" y="-73"/>
      <point x="131" y="420"/>
      <point x="122" y="573" type="curve"/>
      <point x="119" y="626"/>
      <point x="93" y="648"/>
      <point x="20" y="669" type="curve"/>
      <point x="26" y="698" type="line"/>
      <point x="73" y="692"/>
      <point x="172" y="691"/>
    </contour>
    <contour>
      <point x="223" y="360" type="curve"/>
      <point x="203" y="464" type="line"/>
      <point x="235" y="574"/>
      <point x="305" y="640"/>
      <point x="377" y="710" type="curve"/>
      <point x="633" y="720"/>
      <point x="777" y="607"/>
      <point x="777" y="420" type="curve"/>
      <point x="777" y="218"/>
      <point x="547" y="79"/>
      <point x="394" y="61" type="curve"/>
      <point x="207" y="139" type="line"/>
      <point x="223" y="370" type="line"/>
      <point x="228" y="177"/>
      <point x="353" y="141"/>
      <point x="467" y="141" type="curve"/>
      <point x="585" y="141"/>
      <point x="676" y="238"/>
      <point x="676" y="378" type="curve"/>
      <point x="676" y="536"/>
      <point x="575" y="617"/>
      <point x="441" y="617" type="curve"/>
      <point x="328" y="617"/>
      <point x="224" y="534"/>
    </contour>
    <contour>
      <point x="414" y="0" type="move" name="bottom"/>
    </contour>
    <contour>
      <point x="414" y="700" type="move" name="top"/>
    </contour>
  </outline>
</glyph>
<glyph name="Q_strok" format="1">
  <advance width="1091"/>
  <outline>
    <contour>
      <point x="558" y="63" type="curve"/>
      <point x="433" y="9" type="line"/>
      <point x="532" y="-117"/>
      <point x="693" y="-182"/>
      <point x="851" y="-181" type="curve"/>
      <point x="945" y="-181"/>
      <point x="1083" y="-133"/>
      <point x="1141" y="-108" type="curve"/>
      <point x="1134" y="-89" type="line"/>
      <point x="1054" y="-112"/>
      <point x="970" y="-127"/>
      <point x="886" y="-127" type="curve"/>
      <point x="740" y="-127"/>
      <point x="623" y="-72"/>
    </contour>
    <contour>
      <point x="680" y="472" type="curve"/>
      <point x="690" y="441" type="line"/>
      <point x="757" y="499"/>
      <point x="812" y="529"/>
      <point x="863" y="529" type="curve"/>
      <point x="934" y="529"/>
      <point x="972" y="460"/>
      <point x="972" y="406" type="curve"/>
      <point x="972" y="252"/>
      <point x="818" y="72"/>
      <point x="657" y="-81" type="curve"/>
      <point x="691" y="-97" type="line"/>
      <point x="948" y="138"/>
      <point x="1076" y="340"/>
      <point x="1076" y="445" type="curve"/>
      <point x="1076" y="531"/>
      <point x="1020" y="595"/>
      <point x="947" y="612" type="curve"/>
      <point x="861" y="612"/>
      <point x="760" y="535"/>
    </contour>
    <component base="O" xOffset="-1"/>
    <contour>
      <point x="319" y="0" type="move" name="bottom_1"/>
    </contour>
    <contour>
      <point x="956" y="0" type="move" name="bottom_2"/>
    </contour>
    <contour>
      <point x="545.5" y="0" type="move" name="caret_1"/>
    </contour>
    <contour>
      <point x="319" y="400" type="move" name="top_1"/>
    </contour>
    <contour>
      <point x="956" y="400" type="move" name="top_2"/>
    </contour>
  </outline>
</glyph>
<glyph name="S.ss01" format="1">
  <advance width="600"/>
  <outline>
    <contour>
      <point x="405" y="530" type="curve"/>
      <point x="576" y="649" type="line"/>
      <point x="560" y="671" type="line"/>
      <point x="479" y="636" type="line"/>
      <point x="454" y="664"/>
      <point x="384" y="710"/>
      <point x="265" y="710" type="curve"/>
      <point x="117" y="710"/>
      <point x="15" y="630"/>
      <point x="15" y="501" type="curve"/>
      <point x="15" y="392"/>
      <point x="71" y="308"/>
      <point x="194" y="308" type="curve"/>
      <point x="238" y="308"/>
      <point x="295" y="333"/>
      <point x="358" y="333" type="curve"/>
      <point x="441" y="333"/>
      <point x="506" y="286"/>
      <point x="506" y="209" type="curve"/>
      <point x="506" y="132"/>
      <point x="456" y="70"/>
      <point x="347" y="70" type="curve"/>
      <point x="240" y="70"/>
      <point x="191" y="152"/>
      <point x="149" y="194" type="curve"/>
      <point x="12" y="77" type="line"/>
      <point x="31" y="60" type="line"/>
      <point x="104" y="97" type="line"/>
      <point x="138" y="61"/>
      <point x="207" y="-10"/>
      <point x="318" y="-10" type="curve"/>
      <point x="448" y="-10"/>
      <point x="563" y="98"/>
      <point x="563" y="234" type="curve"/>
      <point x="563" y="368"/>
      <point x="493" y="440"/>
      <point x="360" y="455" type="curve"/>
      <point x="272" y="440"/>
      <point x="247" y="425"/>
      <point x="179" y="425" type="curve"/>
      <point x="122" y="425"/>
      <point x="74" y="445"/>
      <point x="74" y="517" type="curve"/>
      <point x="74" y="599"/>
      <point x="135" y="659"/>
      <point x="239" y="659" type="curve"/>
      <point x="341" y="659"/>
      <point x="387" y="570"/>
    </contour>
    <contour>
      <point x="300" y="0" type="move" name="bottom"/>
    </contour>
    <contour>
      <point x="300" y="700" type="move" name="top"/>
    </contour>
  </outline>
</glyph>
<glyph name="V.ss01" format="1">
  <advance width="600"/>
  <outline>
    <contour>
      <point x="21" y="666" type="curve"/>
      <point x="15" y="693" type="line"/>
      <point x="188" y="712" type="line"/>
      <point x="325" y="168" type="line"/>
      <point x="402" y="296"/>
      <point x="507" y="545"/>
      <point x="516" y="625" type="curve"/>
      <point x="520" y="660"/>
      <point x="518" y="666"/>
      <point x="456" y="682" type="curve"/>
      <point x="460" y="708" type="line"/>
      <point x="589" y="693" type="line"/>
      <point x="538" y="452"/>
      <point x="391" y="173"/>
      <point x="268" y="-11" type="curve"/>
      <point x="255" y="-5" type="line"/>
      <point x="210" y="203"/>
      <point x="117" y="587"/>
      <point x="103" y="624" type="curve"/>
      <point x="89" y="661"/>
      <point x="77" y="669"/>
    </contour>
    <contour>
      <point x="300" y="0" type="move" name="bottom"/>
    </contour>
    <contour>
      <point x="300" y="700" type="move" name="top"/>
    </contour>
  </outline>
</glyph>
<glyph name="X.ss01" format="1">
  <advance width="824"/>
  <outline>
    <contour>
      <point x="48" y="665" type="curve"/>
      <point x="46" y="698" type="line"/>
      <point x="255" y="694" type="line"/>
      <point x="380" y="506"/>
      <point x="576" y="179"/>
      <point x="619" y="131" type="curve"/>
      <point x="656" y="89"/>
      <point x="723" y="81"/>
      <point x="775" y="89" type="curve"/>
      <point x="786" y="64" type="line"/>
      <point x="577" y="-15" type="line"/>
      <point x="449" y="196"/>
      <point x="210" y="569"/>
      <point x="183" y="602" type="curve"/>
      <point x="140" y="654"/>
      <point x="93" y="664"/>
    </contour>
    <contour>
      <point x="116" y="-107" type="curve"/>
      <point x="40" y="-76" type="line"/>
      <point x="37" y="-66" type="line"/>
      <point x="295" y="192"/>
      <point x="527" y="453"/>
      <point x="665" y="698" type="curve"/>
      <point x="802" y="694" type="line"/>
      <point x="800" y="664" type="line"/>
      <point x="747" y="663"/>
      <point x="683" y="582"/>
      <point x="600" y="489" type="curve"/>
      <point x="433" y="302"/>
      <point x="276" y="118"/>
    </contour>
    <contour>
      <point x="412" y="0" type="move" name="bottom"/>
    </contour>
    <contour>
      <point x="412" y="700" type="move" name="top"/>
    </contour>
  </outline>
</glyph>
<glyph name="Y.ss01" format="1">
  <advance width="718"/>
  <outline>
    <contour>
      <point x="137" y="-170" type="curve"/>
      <point x="313" y="-37"/>
      <point x="594" y="409"/>
      <point x="622" y="618" type="curve"/>
      <point x="627" y="656"/>
      <point x="624" y="662"/>
      <point x="557" y="679" type="curve"/>
      <point x="562" y="707" type="line"/>
      <point x="718" y="691" type="line"/>
      <point x="657" y="378"/>
      <point x="343" y="-79"/>
      <point x="97" y="-260" type="curve"/>
      <point x="64" y="-251"/>
      <point x="29" y="-218"/>
      <point x="13" y="-208" type="curve"/>
      <point x="43" y="-148" type="line"/>
      <point x="65" y="-156"/>
      <point x="108" y="-167"/>
    </contour>
    <contour>
      <point x="219" y="712" type="line"/>
      <point x="333" y="0" type="line"/>
      <point x="236" y="-100" type="line"/>
      <point x="217" y="24"/>
      <point x="133" y="548"/>
      <point x="114" y="599" type="curve"/>
      <point x="99" y="639"/>
      <point x="86" y="648"/>
      <point x="26" y="645" type="curve"/>
      <point x="19" y="674" type="line"/>
    </contour>
    <contour>
      <point x="359" y="0" type="move" name="bottom"/>
    </contour>
    <contour>
      <point x="359" y="700" type="move" name="top"/>
    </contour>
    <contour>
      <point x="20" y="700" type="move" name="topleft"/>
    </contour>
  </outline>
</glyph>
<glyph name="b_hook" format="1">
  <advance width="492"/>
  <outline>
    <contour>
      <point x="257" y="626" type="curve"/>
      <point x="256" y="639" type="line"/>
      <point x="313" y="701" type="line"/>
      <point x="346" y="700"/>
      <point x="433" y="684"/>
      <point x="433" y="637" type="curve"/>
      <point x="433" y="541"/>
      <point x="208" y="458"/>
      <point x="137" y="441" type="curve"/>
      <point x="121" y="466" type="line"/>
      <point x="202" y="493"/>
      <point x="339" y="532"/>
      <point x="339" y="593" type="curve"/>
      <point x="339" y="632"/>
      <point x="285" y="634"/>
    </contour>
    <contour>
      <point x="168" y="703" type="line"/>
      <point x="180" y="696" type="line"/>
      <point x="177" y="644"/>
      <point x="163" y="525"/>
      <point x="160" y="341" type="curve"/>
      <point x="157" y="148" type="line"/>
      <point x="182" y="98"/>
      <point x="249" y="63"/>
      <point x="293" y="63" type="curve"/>
      <point x="348" y="87"/>
      <point x="392" y="144"/>
      <point x="392" y="216" type="curve"/>
      <point x="392" y="288"/>
      <point x="339" y="351"/>
      <point x="260" y="351" type="curve"/>
      <point x="204" y="351"/>
      <point x="165" y="324"/>
      <point x="141" y="305" type="curve"/>
      <point x="139" y="341" type="line"/>
      <point x="293" y="451" type="line"/>
      <point x="382" y="451"/>
      <point x="472" y="389"/>
      <point x="472" y="265" type="curve"/>
      <point x="472" y="222"/>
      <point x="463" y="177"/>
      <point x="447" y="136" type="curve"/>
      <point x="378" y="57"/>
      <point x="287" y="-9"/>
      <point x="208" y="-9" type="curve"/>
      <point x="133" y="-9"/>
      <point x="68" y="61"/>
      <point x="55" y="131" type="curve"/>
      <point x="63" y="317"/>
      <point x="53" y="499"/>
      <point x="50" y="606" type="curve"/>
      <point x="49" y="646"/>
      <point x="44" y="648"/>
      <point x="5" y="657" type="curve"/>
      <point x="5" y="686" type="line"/>
    </contour>
    <contour>
      <point x="255" y="445" type="move" name="_top"/>
    </contour>
    <contour>
      <point x="255" y="795" type="move" name="top"/>
    </contour>
  </outline>
</glyph>
<glyph name="bardes" format="1">
  <advance width="440"/>
  <outline>
    <contour>
      <point x="398" y="-61" type="curve"/>
      <point x="430" y="-75" type="line"/>
      <point x="410" y="-124"/>
      <point x="375" y="-157"/>
      <point x="356" y="-157" type="curve"/>
      <point x="207" y="-157"/>
      <point x="109" y="-156"/>
      <point x="10" y="-166" type="curve"/>
      <point x="18" y="-132" type="line"/>
      <point x="174" y="-124"/>
      <point x="336" y="-124"/>
    </contour>
  </outline>
</glyph>
<glyph name="c_hook" format="1">
  <advance width="370"/>
  <outline>
    <contour>
      <point x="177" y="600" type="line"/>
      <point x="179" y="580" type="line"/>
      <point x="223" y="584"/>
      <point x="269" y="583"/>
      <point x="269" y="541" type="curve"/>
      <point x="269" y="526"/>
      <point x="259" y="515"/>
      <point x="244" y="492" type="curve"/>
      <point x="261" y="477" type="line"/>
      <point x="290" y="501"/>
      <point x="318" y="531"/>
      <point x="348" y="572" type="curve"/>
      <point x="358" y="644"/>
      <point x="311" y="671"/>
      <point x="242" y="671" type="curve"/>
    </contour>
    <component base="c"/>
    <contour>
      <point x="187" y="445" type="move" name="_top"/>
    </contour>
    <contour>
      <point x="187" y="761" type="move" name="top"/>
    </contour>
  </outline>
</glyph>
<glyph name="c_macr" format="1">
  <advance width="380"/>
  <outline>
    <contour>
      <point x="117" y="512" type="curve"/>
      <point x="90" y="526" type="line"/>
      <point x="146" y="638" type="line"/>
      <point x="232" y="638"/>
      <point x="302" y="633"/>
      <point x="343" y="674" type="curve"/>
      <point x="374" y="660" type="line"/>
      <point x="300" y="552" type="line"/>
      <point x="232" y="558"/>
      <point x="133" y="550"/>
    </contour>
    <component base="c"/>
    <contour>
      <point x="216.7" y="384" type="move" name="_top"/>
    </contour>
    <contour>
      <point x="216.7" y="687.03" type="move" name="top"/>
    </contour>
  </outline>
</glyph>
<glyph name="e_macr" format="1">
  <advance width="409"/>
  <outline>
    <contour>
      <point x="166" y="521" type="curve"/>
      <point x="142" y="534" type="line"/>
      <point x="156" y="558"/>
      <point x="178" y="586"/>
      <point x="208" y="615" type="curve"/>
      <point x="286" y="615"/>
      <point x="339" y="603"/>
      <point x="383" y="634" type="curve"/>
      <point x="411" y="622" type="line"/>
      <point x="394" y="602"/>
      <point x="377" y="568"/>
      <point x="352" y="538" type="curve"/>
      <point x="291" y="534"/>
      <point x="215" y="554"/>
    </contour>
    <component base="e"/>
    <contour>
      <point x="272" y="376" type="move" name="_top"/>
    </contour>
    <contour>
      <point x="272" y="649" type="move" name="top"/>
    </contour>
  </outline>
</glyph>
<glyph name="f_f" format="1">
  <advance width="458"/>
  <outline>
    <contour>
      <point x="337" y="396" type="line"/>
      <point x="299" y="360" type="line"/>
      <point x="20" y="360" type="line"/>
      <point x="20" y="374" type="line"/>
      <point x="75" y="415" type="line"/>
      <point x="75" y="415" type="line"/>
      <point x="337" y="415" type="line"/>
    </contour>
    <contour>
      <point x="171" y="1" type="curve"/>
      <point x="58" y="-10" type="line"/>
      <point x="61" y="185"/>
      <point x="65" y="400"/>
      <point x="65" y="597" type="curve"/>
      <point x="96" y="631"/>
      <point x="203" y="710"/>
      <point x="236" y="710" type="curve"/>
      <point x="303" y="710"/>
      <point x="339" y="624"/>
      <point x="387" y="591" type="curve"/>
      <point x="319" y="558" type="line"/>
      <point x="292" y="611"/>
      <point x="240" y="640"/>
      <point x="163" y="630" type="curve"/>
      <point x="163" y="434"/>
      <point x="161" y="205"/>
    </contour>
    <contour>
      <point x="537" y="395" type="line"/>
      <point x="528" y="360" type="line"/>
      <point x="285" y="360" type="line"/>
      <point x="285" y="374" type="line"/>
      <point x="340" y="414" type="line"/>
      <point x="340" y="414" type="line"/>
      <point x="537" y="414" type="line"/>
    </contour>
    <contour>
      <point x="416" y="1" type="curve"/>
      <point x="303" y="-10" type="line"/>
      <point x="306" y="185"/>
      <point x="317" y="374"/>
      <point x="317" y="570" type="curve"/>
      <point x="357" y="608"/>
      <point x="410" y="707"/>
      <point x="497" y="707" type="curve"/>
      <point x="555" y="707"/>
      <point x="583" y="670"/>
      <point x="588" y="625" type="curve"/>
      <point x="535" y="615" type="line"/>
      <point x="523" y="638"/>
      <point x="501" y="652"/>
      <point x="472" y="653" type="curve"/>
      <point x="430" y="654"/>
      <point x="408" y="623"/>
      <point x="408" y="585" type="curve"/>
      <point x="408" y="380"/>
      <point x="406" y="205"/>
    </contour>
    <contour>
      <point x="138" y="1" type="move" name="bottom"/>
    </contour>
    <contour>
      <point x="255" y="1" type="move" name="caret_1"/>
    </contour>
    <contour>
      <point x="138" y="445" type="move" name="top"/>
    </contour>
  </outline>
</glyph>
<glyph name="flour" format="1">
  <advance width="235"/>
  <outline>
    <contour>
      <point x="142" y="42" type="curve"/>
      <point x="157" y="17" type="line"/>
      <point x="49" y="12"/>
      <point x="-52" y="-3"/>
      <point x="-62" y="-70" type="curve"/>
      <point x="-68" y="-109"/>
      <point x="-35" y="-127"/>
      <point x="0" y="-133" type="curve"/>
      <point x="-1" y="-155" type="line"/>
      <point x="-46" y="-171"/>
      <point x="-89" y="-190"/>
      <point x="-117" y="-190" type="curve"/>
      <point x="-142" y="-162"/>
      <point x="-152" y="-127"/>
      <point x="-153" y="-93" type="curve"/>
      <point x="-155" y="-8"/>
      <point x="-7" y="39"/>
    </contour>
  </outline>
</glyph>
<glyph name="g_hook" format="1">
  <advance width="537"/>
  <outline>
    <contour>
      <point x="339.13" y="631" type="line"/>
      <point x="341.35" y="608.8" type="line"/>
      <point x="390.19" y="613.24"/>
      <point x="441.25" y="612.13"/>
      <point x="441.25" y="565.51" type="curve"/>
      <point x="441.25" y="548.86"/>
      <point x="430.15" y="536.65"/>
      <point x="413.5" y="511.12" type="curve"/>
      <point x="432.37" y="494.47" type="line"/>
      <point x="464.56" y="521.11"/>
      <point x="495.64" y="554.41"/>
      <point x="528.94" y="599.92" type="curve"/>
      <point x="540.04" y="679.84"/>
      <point x="487.87" y="709.81"/>
      <point x="411.28" y="709.81" type="curve"/>
    </contour>
    <component base="g"/>
    <contour>
      <point x="422.38" y="409" type="move" name="_top"/>
    </contour>
    <contour>
      <point x="422.38" y="759.76" type="move" name="top"/>
    </contour>
  </outline>
</glyph>
<glyph name="g_i" format="1">
  <advance width="728"/>
  <outline>
    <contour>
      <point x="513" y="351" type="line"/>
      <point x="553" y="350" type="line"/>
      <point x="554" y="65" type="line" smooth="yes"/>
      <point x="554" y="26"/>
      <point x="585" y="-10"/>
      <point x="603" y="-10" type="curve"/>
      <point x="627" y="2"/>
      <point x="672" y="23"/>
      <point x="703" y="35" type="curve"/>
      <point x="701" y="60" type="line"/>
      <point x="666" y="58"/>
      <point x="656" y="75"/>
      <point x="654" y="109" type="curve"/>
      <point x="648" y="212"/>
      <point x="650" y="386"/>
      <point x="655" y="441" type="curve"/>
      <point x="643" y="449" type="line"/>
      <point x="617" y="438"/>
      <point x="548" y="425"/>
      <point x="512" y="422" type="curve"/>
    </contour>
    <contour>
      <point x="686" y="635" type="line"/>
      <point x="623" y="520" type="line"/>
      <point x="593" y="561" type="line"/>
      <point x="665" y="651" type="line"/>
    </contour>
    <component base="g"/>
    <contour>
      <point x="622" y="1" type="move" name="bottom"/>
    </contour>
  </outline>
</glyph>
<glyph name="g_ra" format="1">
  <advance width="568"/>
  <outline>
    <contour>
      <point x="206.99" y="616.278" type="curve"/>
      <point x="223.083" y="638.1185"/>
      <point x="257.568" y="662.258"/>
      <point x="282.857" y="680.65" type="curve"/>
      <point x="301.249" y="638.1185"/>
      <point x="327.6875" y="608.2315"/>
      <point x="346.0795" y="605.9325" type="curve"/>
      <point x="381.714" y="622.0255"/>
      <point x="411.601" y="656.5105"/>
      <point x="439.189" y="678.351" type="curve"/>
      <point x="497.8135" y="618.577"/>
      <point x="500.1125" y="611.68"/>
      <point x="541.4945" y="635.8195" type="curve"/>
      <point x="557.5875" y="616.278" type="line"/>
      <point x="548.3915" y="607.082"/>
      <point x="523.1025" y="580.6435"/>
      <point x="465.6275" y="523.1685" type="curve"/>
      <point x="449.5345" y="545.009"/>
      <point x="421.9465" y="584.092"/>
      <point x="382.8635" y="600.185" type="curve"/>
      <point x="344.93" y="572.597"/>
      <point x="320.7905" y="551.906"/>
      <point x="297.8005" y="524.318" type="curve"/>
      <point x="256.4185" y="547.308"/>
      <point x="232.279" y="579.494"/>
    </contour>
    <component base="g"/>
  </outline>
</glyph>
<glyph name="h_hook" format="1">
  <advance width="523"/>
  <outline>
    <component base="h"/>
    <component base="hook" xScale="0.9781" xyScale="0.2079" yScale="0.9781" yxScale="-0.2079" xOffset="256" yOffset="21"/>
    <contour>
      <point x="241" y="445" type="move" name="_top"/>
    </contour>
    <contour>
      <point x="241" y="795" type="move" name="top"/>
    </contour>
  </outline>
</glyph>
<glyph name="i.ss01" format="1">
  <advance width="211"/>
  <outline>
    <contour>
      <point x="40" y="27" type="curve"/>
      <point x="40" y="128"/>
      <point x="48" y="378"/>
      <point x="54" y="431" type="curve"/>
      <point x="137" y="444" type="line"/>
      <point x="146" y="440" type="line"/>
      <point x="134" y="341"/>
      <point x="132" y="211"/>
      <point x="137" y="96" type="curve"/>
      <point x="138" y="62"/>
      <point x="149" y="45"/>
      <point x="184" y="47" type="curve"/>
      <point x="186" y="25" type="line"/>
      <point x="160" y="13"/>
      <point x="110" y="-2"/>
      <point x="86" y="-10" type="curve"/>
      <point x="67" y="0"/>
      <point x="56" y="8"/>
    </contour>
  </outline>
</glyph>
<glyph name="i_n" format="1">
  <advance width="651"/>
  <outline>
    <contour>
      <point x="57" y="1" type="line"/>
      <point x="56" y="360" type="line"/>
      <point x="56" y="374"/>
      <point x="45" y="391"/>
      <point x="26" y="399" type="curve"/>
      <point x="25" y="418" type="line"/>
      <point x="44" y="431"/>
      <point x="77" y="445"/>
      <point x="106" y="456" type="curve"/>
      <point x="125" y="444"/>
      <point x="157" y="428"/>
      <point x="157" y="370" type="curve"/>
      <point x="157" y="1" type="line"/>
    </contour>
    <contour>
      <point x="213" y="664" type="line"/>
      <point x="130" y="529" type="line"/>
      <point x="100" y="543" type="line"/>
      <point x="164" y="689" type="line"/>
    </contour>
    <contour>
      <point x="157" y="349" type="curve"/>
      <point x="155" y="383" type="line"/>
      <point x="192" y="407"/>
      <point x="230" y="454"/>
      <point x="267" y="454" type="curve"/>
      <point x="339" y="454"/>
      <point x="370" y="413"/>
      <point x="370" y="358" type="curve"/>
      <point x="370" y="11" type="line"/>
      <point x="263" y="-9" type="line"/>
      <point x="268" y="66"/>
      <point x="270" y="250"/>
      <point x="270" y="318" type="curve"/>
      <point x="270" y="359"/>
      <point x="246" y="374"/>
      <point x="217" y="374" type="curve"/>
      <point x="197" y="374"/>
      <point x="175" y="367"/>
    </contour>
    <contour>
      <point x="433" y="379" type="curve"/>
      <point x="410" y="379"/>
      <point x="382" y="361"/>
      <point x="369" y="335" type="curve"/>
      <point x="349" y="371" type="line"/>
      <point x="405" y="413"/>
      <point x="461" y="451"/>
      <point x="489" y="451" type="curve"/>
      <point x="560" y="451"/>
      <point x="592" y="421"/>
      <point x="592" y="338" type="curve"/>
      <point x="592" y="233"/>
      <point x="592" y="125"/>
      <point x="596" y="10" type="curve"/>
      <point x="488" y="-9" type="line"/>
      <point x="492" y="95"/>
      <point x="494" y="240"/>
      <point x="491" y="323" type="curve"/>
      <point x="490" y="354"/>
      <point x="472" y="379"/>
    </contour>
    <contour>
      <point x="95" y="1" type="move" name="bottom"/>
    </contour>
    <contour>
      <point x="140" y="1" type="move" name="bottom_1"/>
    </contour>
    <contour>
      <point x="439" y="1" type="move" name="bottom_2"/>
    </contour>
    <contour>
      <point x="290" y="1" type="move" name="caret_1"/>
    </contour>
    <contour>
      <point x="395" y="445" type="move" name="top"/>
    </contour>
  </outline>
</glyph>
<glyph name="l_hook" format="1">
  <advance width="227"/>
  <outline>
    <contour>
      <point x="207" y="598" type="curve"/>
      <point x="207" y="618" type="line"/>
      <point x="273" y="690" type="line"/>
      <point x="342" y="683"/>
      <point x="387" y="603"/>
      <point x="369" y="572" type="curve"/>
      <point x="335" y="535"/>
      <point x="251" y="433"/>
      <point x="140" y="328" type="curve"/>
      <point x="124" y="349" type="line"/>
      <point x="142" y="371"/>
      <point x="290" y="505"/>
      <point x="288" y="550" type="curve"/>
      <point x="287" y="574"/>
      <point x="251" y="597"/>
    </contour>
    <component base="l"/>
    <contour>
      <point x="218" y="422" type="move" name="_top"/>
    </contour>
    <contour>
      <point x="218" y="773" type="move" name="top"/>
    </contour>
  </outline>
</glyph>
<glyph name="longhook" format="1">
  <advance width="386"/>
  <outline>
    <contour>
      <point x="86" y="578" type="curve"/>
      <point x="96" y="551" type="line"/>
      <point x="134" y="609"/>
      <point x="175" y="631"/>
      <point x="206" y="631" type="curve"/>
      <point x="246" y="631"/>
      <point x="257" y="607"/>
      <point x="257" y="576" type="curve"/>
      <point x="257" y="510"/>
      <point x="186" y="426"/>
      <point x="72" y="353" type="curve"/>
      <point x="90" y="338" type="line"/>
      <point x="223" y="411"/>
      <point x="341" y="503"/>
      <point x="341" y="608" type="curve"/>
      <point x="341" y="649"/>
      <point x="299" y="708"/>
      <point x="260" y="708" type="curve"/>
      <point x="217" y="708"/>
      <point x="131" y="646"/>
    </contour>
  </outline>
</glyph>
<glyph name="longs_strok" format="1">
  <advance width="470"/>
  <outline>
    <contour>
      <point x="150" y="350" type="curve"/>
      <point x="135" y="379" type="line"/>
      <point x="196" y="401"/>
      <point x="238" y="429"/>
      <point x="299" y="451" type="curve"/>
      <point x="365" y="413"/>
      <point x="436" y="350"/>
      <point x="446" y="287" type="curve"/>
      <point x="405" y="218"/>
      <point x="257" y="121"/>
      <point x="162" y="43" type="curve"/>
      <point x="147" y="74" type="line"/>
      <point x="217" y="127"/>
      <point x="337" y="222"/>
      <point x="337" y="282" type="curve"/>
      <point x="337" y="323"/>
      <point x="280" y="369"/>
      <point x="238" y="369" type="curve"/>
      <point x="198" y="369"/>
      <point x="168" y="360"/>
    </contour>
    <contour>
      <point x="163" y="365" type="line"/>
      <point x="124" y="330" type="line"/>
      <point x="30" y="330" type="line"/>
      <point x="30" y="344" type="line"/>
      <point x="85" y="404" type="line"/>
      <point x="85" y="404" type="line"/>
      <point x="163" y="384" type="line"/>
    </contour>
    <contour>
      <point x="181" y="1" type="curve"/>
      <point x="68" y="-10" type="line"/>
      <point x="71" y="185"/>
      <point x="75" y="330"/>
      <point x="75" y="526" type="curve"/>
      <point x="75" y="564"/>
      <point x="230" y="712"/>
      <point x="293" y="712" type="curve"/>
      <point x="463" y="661" type="line"/>
      <point x="465" y="644" type="line"/>
      <point x="393" y="579" type="line"/>
      <point x="356" y="599"/>
      <point x="263" y="625"/>
      <point x="207" y="620" type="curve"/>
      <point x="192" y="610"/>
      <point x="173" y="586"/>
      <point x="173" y="517" type="curve"/>
      <point x="173" y="352"/>
      <point x="171" y="205"/>
    </contour>
    <contour>
      <point x="194" y="1" type="move" name="bottom"/>
    </contour>
    <contour>
      <point x="194" y="445" type="move" name="top"/>
    </contour>
  </outline>
</glyph>
<glyph name="m_macr" format="1">
  <advance width="702"/>
  <outline>
    <contour>
      <point x="308.04" y="527.95" type="curve"/>
      <point x="281.4" y="542.38" type="line"/>
      <point x="296.94" y="569.02"/>
      <point x="321.36" y="600.1"/>
      <point x="354.66" y="632.29" type="curve"/>
      <point x="441.24" y="632.29"/>
      <point x="500.07" y="618.97"/>
      <point x="548.91" y="653.38" type="curve"/>
      <point x="579.99" y="640.06" type="line"/>
      <point x="561.12" y="617.86"/>
      <point x="542.25" y="580.12"/>
      <point x="514.5" y="546.82" type="curve"/>
      <point x="446.79" y="542.38"/>
      <point x="362.43" y="564.58"/>
    </contour>
    <component base="m"/>
    <contour>
      <point x="425.7" y="367" type="move" name="_top"/>
    </contour>
    <contour>
      <point x="425.7" y="670.03" type="move" name="top"/>
    </contour>
  </outline>
</glyph>
<glyph name="n_macr" format="1">
  <advance width="486"/>
  <outline>
    <contour>
      <point x="185" y="507.2635" type="curve"/>
      <point x="161" y="522.6074" type="line"/>
      <point x="175" y="550.9346"/>
      <point x="197" y="583.983"/>
      <point x="227" y="618.2117" type="curve"/>
      <point x="305" y="618.2117"/>
      <point x="358" y="604.0481"/>
      <point x="402" y="640.6374" type="curve"/>
      <point x="430" y="626.4738" type="line"/>
      <point x="413" y="602.8678"/>
      <point x="396" y="562.7376"/>
      <point x="371" y="527.3286" type="curve"/>
      <point x="310" y="522.6074"/>
      <point x="234" y="546.2134"/>
    </contour>
    <component base="n"/>
    <contour>
      <point x="291" y="336.12" type="move" name="_top"/>
    </contour>
    <contour>
      <point x="291" y="658.3419" type="move" name="top"/>
    </contour>
  </outline>
</glyph>
<glyph name="p_macr" format="1">
  <advance width="580"/>
  <outline>
    <contour>
      <point x="236.04" y="513.8485" type="curve"/>
      <point x="209.4" y="530.6614" type="line"/>
      <point x="224.94" y="561.7006"/>
      <point x="249.36" y="597.913"/>
      <point x="282.66" y="635.4187" type="curve"/>
      <point x="369.24" y="635.4187"/>
      <point x="428.07" y="619.8991"/>
      <point x="476.91" y="659.9914" type="curve"/>
      <point x="507.99" y="644.4718" type="line"/>
      <point x="489.12" y="618.6058"/>
      <point x="470.25" y="574.6336"/>
      <point x="442.5" y="535.8346" type="curve"/>
      <point x="374.79" y="530.6614"/>
      <point x="290.43" y="556.5274"/>
    </contour>
    <component base="p"/>
    <contour>
      <point x="353.7" y="326.32" type="move" name="_top"/>
    </contour>
    <contour>
      <point x="353.7" y="679.3909" type="move" name="top"/>
    </contour>
  </outline>
</glyph>
<glyph name="p_p" format="1">
  <advance width="880"/>
  <outline>
    <contour>
      <point x="338" y="365" type="curve"/>
      <point x="336" y="385" type="line"/>
      <point x="367" y="457" type="line"/>
      <point x="437" y="436"/>
      <point x="545" y="361"/>
      <point x="545" y="335" type="curve"/>
      <point x="553" y="-277" type="line"/>
      <point x="446" y="-277" type="line"/>
      <point x="451" y="-201"/>
      <point x="457" y="144"/>
      <point x="457" y="232" type="curve"/>
      <point x="457" y="299"/>
      <point x="402" y="365"/>
    </contour>
    <contour>
      <point x="621" y="46" type="curve"/>
      <point x="711" y="46"/>
      <point x="757" y="102"/>
      <point x="757" y="204" type="curve"/>
      <point x="757" y="287"/>
      <point x="697" y="358"/>
      <point x="621" y="358" type="curve"/>
      <point x="569" y="358"/>
      <point x="532" y="328"/>
      <point x="507" y="295" type="curve"/>
      <point x="483" y="345" type="line"/>
      <point x="550" y="377"/>
      <point x="629" y="434"/>
      <point x="669" y="457" type="curve"/>
      <point x="774" y="417"/>
      <point x="849" y="346"/>
      <point x="845" y="227" type="curve"/>
      <point x="841" y="105"/>
      <point x="669" y="-13"/>
      <point x="621" y="-10" type="curve"/>
      <point x="458" y="0" type="line"/>
      <point x="472" y="98" type="line"/>
      <point x="503" y="65"/>
      <point x="564" y="46"/>
    </contour>
    <component base="p"/>
    <contour>
      <point x="545" y="1" type="move" name="bottom"/>
    </contour>
    <contour>
      <point x="545" y="445" type="move" name="top"/>
    </contour>
  </outline>
</glyph>
<glyph name="p_ra" format="1">
  <advance width="580"/>
  <outline>
    <contour>
      <point x="137.2" y="600.84" type="curve"/>
      <point x="152.74" y="621.93"/>
      <point x="186.04" y="645.24"/>
      <point x="210.46" y="663" type="curve"/>
      <point x="228.22" y="621.93"/>
      <point x="253.75" y="593.07"/>
      <point x="271.51" y="590.85" type="curve"/>
      <point x="305.92" y="606.39"/>
      <point x="334.78" y="639.69"/>
      <point x="361.42" y="660.78" type="curve"/>
      <point x="418.03" y="603.06"/>
      <point x="420.25" y="596.4"/>
      <point x="460.21" y="619.71" type="curve"/>
      <point x="475.75" y="600.84" type="line"/>
      <point x="466.87" y="591.96"/>
      <point x="442.45" y="566.43"/>
      <point x="386.95" y="510.93" type="curve"/>
      <point x="371.41" y="532.02"/>
      <point x="344.77" y="569.76"/>
      <point x="307.03" y="585.3" type="curve"/>
      <point x="270.4" y="558.66"/>
      <point x="247.09" y="538.68"/>
      <point x="224.89" y="512.04" type="curve"/>
      <point x="184.93" y="534.24"/>
      <point x="161.62" y="565.32"/>
    </contour>
    <component base="p"/>
  </outline>
</glyph>
<glyph name="q_hook" format="1">
  <advance width="512"/>
  <outline>
    <contour>
      <point x="367" y="686" type="curve"/>
      <point x="306" y="600" type="line"/>
      <point x="370" y="599"/>
      <point x="410" y="589"/>
      <point x="410" y="564" type="curve"/>
      <point x="410" y="538"/>
      <point x="392" y="525"/>
      <point x="376" y="511" type="curve"/>
      <point x="392" y="493" type="line"/>
      <point x="417" y="510"/>
      <point x="475" y="541"/>
      <point x="475" y="604" type="curve"/>
      <point x="475" y="650"/>
      <point x="427" y="686"/>
    </contour>
    <component base="q"/>
    <contour>
      <point x="374" y="459.469" type="move" name="_top"/>
    </contour>
    <contour>
      <point x="374" y="690.52" type="move" name="top"/>
    </contour>
  </outline>
</glyph>
<glyph name="q_ra" format="1">
  <advance width="512"/>
  <outline>
    <contour>
      <point x="136" y="619" type="curve"/>
      <point x="150" y="638"/>
      <point x="180" y="659"/>
      <point x="202" y="675" type="curve"/>
      <point x="218" y="638"/>
      <point x="241" y="612"/>
      <point x="257" y="610" type="curve"/>
      <point x="288" y="624"/>
      <point x="314" y="654"/>
      <point x="338" y="673" type="curve"/>
      <point x="389" y="621"/>
      <point x="391" y="615"/>
      <point x="427" y="636" type="curve"/>
      <point x="441" y="619" type="line"/>
      <point x="433" y="611"/>
      <point x="411" y="588"/>
      <point x="361" y="538" type="curve"/>
      <point x="347" y="557"/>
      <point x="323" y="591"/>
      <point x="289" y="605" type="curve"/>
      <point x="256" y="581"/>
      <point x="235" y="563"/>
      <point x="215" y="539" type="curve"/>
      <point x="179" y="559"/>
      <point x="158" y="587"/>
    </contour>
    <component base="q"/>
  </outline>
</glyph>
<glyph name="q_strok" format="1">
  <advance width="771"/>
  <outline>
    <contour>
      <point x="405" y="315" type="curve"/>
      <point x="416" y="280" type="line"/>
      <point x="438" y="282"/>
      <point x="469" y="341"/>
      <point x="526" y="341" type="curve"/>
      <point x="596" y="341"/>
      <point x="622" y="297"/>
      <point x="622" y="237" type="curve"/>
      <point x="622" y="86"/>
      <point x="372" y="-86"/>
      <point x="194" y="-245" type="curve"/>
      <point x="243" y="-285" type="line"/>
      <point x="495" y="-24"/>
      <point x="736" y="135"/>
      <point x="736" y="301" type="curve"/>
      <point x="736" y="397"/>
      <point x="633" y="443"/>
      <point x="563" y="457" type="curve"/>
      <point x="521" y="439"/>
      <point x="442" y="345"/>
    </contour>
    <component base="q"/>
    <contour>
      <point x="246" y="1" type="move" name="bottom_1"/>
    </contour>
    <contour>
      <point x="738" y="1" type="move" name="bottom_2"/>
    </contour>
    <contour>
      <point x="492" y="1" type="move" name="caret_1"/>
    </contour>
    <contour>
      <point x="246" y="445" type="move" name="top_1"/>
    </contour>
    <contour>
      <point x="738" y="445" type="move" name="top_2"/>
    </contour>
  </outline>
</glyph>
<glyph name="q_strok_ra" format="1">
  <advance width="771"/>
  <outline>
    <contour>
      <point x="405" y="315" type="curve"/>
      <point x="416" y="280" type="line"/>
      <point x="438" y="282"/>
      <point x="469" y="341"/>
      <point x="526" y="341" type="curve"/>
      <point x="596" y="341"/>
      <point x="622" y="297"/>
      <point x="622" y="237" type="curve"/>
      <point x="622" y="86"/>
      <point x="372" y="-86"/>
      <point x="194" y="-245" type="curve"/>
      <point x="243" y="-285" type="line"/>
      <point x="495" y="-24"/>
      <point x="736" y="135"/>
      <point x="736" y="301" type="curve"/>
      <point x="736" y="397"/>
      <point x="633" y="443"/>
      <point x="563" y="457" type="curve"/>
      <point x="521" y="439"/>
      <point x="442" y="345"/>
    </contour>
    <component base="q"/>
    <component base="ra" xScale="1.11" yScale="1.11" xOffset="330" yOffset="-107"/>
    <contour>
      <point x="191" y="1" type="move" name="bottom_1"/>
    </contour>
    <contour>
      <point x="572" y="1" type="move" name="bottom_2"/>
    </contour>
    <contour>
      <point x="952" y="1" type="move" name="bottom_3"/>
    </contour>
    <contour>
      <point x="381" y="1" type="move" name="caret_1"/>
    </contour>
    <contour>
      <point x="762" y="1" type="move" name="caret_2"/>
    </contour>
    <contour>
      <point x="191" y="445" type="move" name="top_1"/>
    </contour>
    <contour>
      <point x="572" y="445" type="move" name="top_2"/>
    </contour>
    <contour>
      <point x="952" y="445" type="move" name="top_3"/>
    </contour>
  </outline>
</glyph>
<glyph name="r.ss01" format="1">
  <advance width="301"/>
  <outline>
    <contour>
      <point x="18" y="324" type="curve"/>
      <point x="6" y="357" type="line"/>
      <point x="53" y="386"/>
      <point x="110" y="446"/>
      <point x="132" y="457" type="curve"/>
      <point x="167" y="457"/>
      <point x="273" y="419"/>
      <point x="273" y="340" type="curve"/>
      <point x="273" y="250"/>
      <point x="179" y="190"/>
      <point x="147" y="136" type="curve"/>
      <point x="169" y="112"/>
      <point x="236" y="67"/>
      <point x="309" y="87" type="curve"/>
      <point x="315" y="71" type="line"/>
      <point x="204" y="-15" type="line"/>
      <point x="142" y="8"/>
      <point x="81" y="55"/>
      <point x="41" y="76" type="curve"/>
      <point x="37" y="94" type="line"/>
      <point x="133" y="162"/>
      <point x="167" y="232"/>
      <point x="167" y="283" type="curve"/>
      <point x="167" y="334"/>
      <point x="132" y="353"/>
      <point x="99" y="353" type="curve"/>
      <point x="61" y="353"/>
      <point x="43" y="343"/>
    </contour>
  </outline>
</glyph>
<glyph name="r_macr" format="1">
  <advance width="330"/>
  <outline>
    <contour>
      <point x="120.208" y="522.567" type="curve"/>
      <point x="98.38" y="539.1108" type="line"/>
      <point x="111.113" y="569.6532"/>
      <point x="131.122" y="605.286"/>
      <point x="158.407" y="642.1914" type="curve"/>
      <point x="229.348" y="642.1914"/>
      <point x="277.5515" y="626.9202"/>
      <point x="317.5695" y="666.3708" type="curve"/>
      <point x="343.0355" y="651.0996" type="line"/>
      <point x="327.574" y="625.6476"/>
      <point x="312.1125" y="582.3792"/>
      <point x="289.375" y="544.2012" type="curve"/>
      <point x="233.8955" y="539.1108"/>
      <point x="164.7735" y="564.5628"/>
    </contour>
    <component base="r"/>
    <contour>
      <point x="216.615" y="338.04" type="move" name="_top"/>
    </contour>
    <contour>
      <point x="216.615" y="685.4598" type="move" name="top"/>
    </contour>
  </outline>
</glyph>
<glyph name="ra" format="1">
  <advance width="365"/>
  <outline>
    <contour>
      <point x="20" y="644" type="curve"/>
      <point x="34" y="663"/>
      <point x="64" y="684"/>
      <point x="86" y="700" type="curve"/>
      <point x="102" y="663"/>
      <point x="125" y="637"/>
      <point x="141" y="635" type="curve"/>
      <point x="172" y="649"/>
      <point x="198" y="679"/>
      <point x="222" y="698" type="curve"/>
      <point x="273" y="646"/>
      <point x="275" y="640"/>
      <point x="311" y="661" type="curve"/>
      <point x="325" y="644" type="line"/>
      <point x="317" y="636"/>
      <point x="295" y="613"/>
      <point x="245" y="563" type="curve"/>
      <point x="231" y="582"/>
      <point x="207" y="616"/>
      <point x="173" y="630" type="curve"/>
      <point x="140" y="606"/>
      <point x="119" y="588"/>
      <point x="99" y="564" type="curve"/>
      <point x="63" y="584"/>
      <point x="42" y="612"/>
    </contour>
  </outline>
</glyph>
<glyph name="rum" format="1">
  <advance width="555"/>
  <outline>
    <contour>
      <point x="545" y="68" type="line"/>
      <point x="494" y="3" type="line"/>
      <point x="23" y="3" type="line"/>
      <point x="23" y="32" type="line"/>
      <point x="103" y="136"/>
      <point x="164" y="229"/>
      <point x="164" y="282" type="curve"/>
      <point x="164" y="356"/>
      <point x="73" y="347"/>
      <point x="40" y="329" type="curve"/>
      <point x="9" y="355" type="line"/>
      <point x="9" y="355"/>
      <point x="111" y="426"/>
      <point x="135" y="448" type="curve"/>
      <point x="212" y="418"/>
      <point x="284" y="356"/>
      <point x="284" y="347" type="curve"/>
      <point x="258" y="282"/>
      <point x="179" y="181"/>
      <point x="111" y="89" type="curve"/>
      <point x="180" y="89"/>
      <point x="299" y="91"/>
      <point x="545" y="91" type="curve"/>
    </contour>
    <contour>
      <point x="281" y="-276" type="curve"/>
      <point x="191" y="-287" type="line"/>
      <point x="185" y="-277" type="line"/>
      <point x="300" y="-118"/>
      <point x="446" y="119"/>
      <point x="446" y="229" type="curve"/>
      <point x="446" y="297"/>
      <point x="412" y="332"/>
      <point x="364" y="332" type="curve"/>
      <point x="326" y="332"/>
      <point x="277" y="320"/>
      <point x="234" y="259" type="curve"/>
      <point x="232" y="311" type="line"/>
      <point x="297" y="355"/>
      <point x="362" y="401"/>
      <point x="414" y="446" type="curve"/>
      <point x="516" y="446"/>
      <point x="559" y="397"/>
      <point x="563" y="319" type="curve"/>
      <point x="526" y="211"/>
      <point x="310" y="-150"/>
    </contour>
  </outline>
</glyph>
<glyph name="t_acute" format="1">
  <advance width="328"/>
  <outline>
    <contour>
      <point x="121.4067" y="630.94" type="line"/>
      <point x="123.4165" y="610.842" type="line"/>
      <point x="167.6321" y="614.8616"/>
      <point x="213.8575" y="613.8567"/>
      <point x="213.8575" y="571.6509" type="curve"/>
      <point x="213.8575" y="556.5774"/>
      <point x="203.8085" y="545.5235"/>
      <point x="188.735" y="522.4108" type="curve"/>
      <point x="205.8183" y="507.3373" type="line"/>
      <point x="234.9604" y="531.4549"/>
      <point x="263.0976" y="561.6019"/>
      <point x="293.2446" y="602.8028" type="curve"/>
      <point x="303.2936" y="675.1556"/>
      <point x="256.0633" y="702.2879"/>
      <point x="186.7252" y="702.2879" type="curve"/>
    </contour>
    <component base="t"/>
    <contour>
      <point x="196.7742" y="429.96" type="move" name="_top"/>
    </contour>
    <contour>
      <point x="196.7742" y="747.5084" type="move" name="top"/>
    </contour>
  </outline>
</glyph>
<glyph name="t_ra" format="1">
  <advance width="338"/>
  <outline>
    <contour>
      <point x="35.14" y="638.84" type="curve"/>
      <point x="49.238" y="659.93"/>
      <point x="79.448" y="683.24"/>
      <point x="101.602" y="701" type="curve"/>
      <point x="117.714" y="659.93"/>
      <point x="140.875" y="631.07"/>
      <point x="156.987" y="628.85" type="curve"/>
      <point x="188.204" y="644.39"/>
      <point x="214.386" y="677.69"/>
      <point x="238.554" y="698.78" type="curve"/>
      <point x="289.911" y="641.06"/>
      <point x="291.925" y="634.4"/>
      <point x="328.177" y="657.71" type="curve"/>
      <point x="342.275" y="638.84" type="line"/>
      <point x="334.219" y="629.96"/>
      <point x="312.065" y="604.43"/>
      <point x="261.715" y="548.93" type="curve"/>
      <point x="247.617" y="570.02"/>
      <point x="223.449" y="607.76"/>
      <point x="189.211" y="623.3" type="curve"/>
      <point x="155.98" y="596.66"/>
      <point x="134.833" y="576.68"/>
      <point x="114.693" y="550.04" type="curve"/>
      <point x="78.441" y="572.24"/>
      <point x="57.294" y="603.32"/>
    </contour>
    <component base="t" xOffset="4"/>
  </outline>
</glyph>
<glyph name="t_tilde" format="1">
  <advance width="390"/>
  <outline>
    <contour>
      <point x="90" y="544" type="curve"/>
      <point x="64" y="552" type="line"/>
      <point x="64" y="591"/>
      <point x="132" y="674"/>
      <point x="177" y="674" type="curve"/>
      <point x="241" y="674"/>
      <point x="276" y="624"/>
      <point x="307" y="624" type="curve"/>
      <point x="349" y="624"/>
      <point x="341" y="682"/>
      <point x="293" y="698" type="curve"/>
      <point x="298" y="720" type="line"/>
      <point x="361" y="711"/>
      <point x="394" y="686"/>
      <point x="394" y="632" type="curve"/>
      <point x="394" y="581"/>
      <point x="335" y="544"/>
      <point x="303" y="544" type="curve"/>
      <point x="271" y="544"/>
      <point x="173" y="591"/>
      <point x="145" y="591" type="curve"/>
      <point x="118" y="591"/>
      <point x="100" y="568"/>
    </contour>
    <contour>
      <point x="378" y="445" type="line"/>
      <point x="159" y="445" type="line"/>
      <point x="159" y="502" type="line"/>
      <point x="135" y="502" type="line"/>
      <point x="115" y="472"/>
      <point x="70" y="439"/>
      <point x="35" y="399" type="curve"/>
      <point x="35" y="389" type="line"/>
      <point x="60" y="358" type="line"/>
      <point x="60" y="83" type="line" smooth="yes"/>
      <point x="60" y="26"/>
      <point x="151" y="-9"/>
      <point x="190" y="-10" type="curve"/>
      <point x="213" y="-10"/>
      <point x="354" y="50"/>
      <point x="354" y="50" type="curve"/>
      <point x="349" y="75" type="line"/>
      <point x="249" y="61"/>
      <point x="159" y="60"/>
      <point x="159" y="137" type="curve"/>
      <point x="159" y="200"/>
      <point x="160" y="304"/>
      <point x="161" y="367" type="curve"/>
      <point x="340" y="367" type="line"/>
    </contour>
    <contour>
      <point x="153" y="1" type="move" name="bottom"/>
    </contour>
    <contour>
      <point x="153" y="223" type="move" name="center"/>
    </contour>
    <contour>
      <point x="153" y="445" type="move" name="top"/>
    </contour>
    <contour>
      <point x="285" y="445" type="move" name="topright"/>
    </contour>
  </outline>
</glyph>
<glyph name="u_hook" format="1">
  <advance width="504"/>
  <outline>
    <contour>
      <point x="128.13" y="633" type="line"/>
      <point x="130.35" y="610.8" type="line"/>
      <point x="179.19" y="615.24"/>
      <point x="230.25" y="614.13"/>
      <point x="230.25" y="567.51" type="curve"/>
      <point x="230.25" y="550.86"/>
      <point x="219.15" y="538.65"/>
      <point x="202.5" y="513.12" type="curve"/>
      <point x="221.37" y="496.47" type="line"/>
      <point x="253.56" y="523.11"/>
      <point x="284.64" y="556.41"/>
      <point x="317.94" y="601.92" type="curve"/>
      <point x="329.04" y="681.84"/>
      <point x="276.87" y="711.81"/>
      <point x="200.28" y="711.81" type="curve"/>
    </contour>
    <component base="u"/>
    <contour>
      <point x="211.38" y="411" type="move" name="_top"/>
    </contour>
    <contour>
      <point x="211.38" y="761.76" type="move" name="top"/>
    </contour>
  </outline>
</glyph>
<glyph name="urrot" format="1">
  <advance width="185"/>
  <outline>
    <contour>
      <point x="10" y="673" type="curve"/>
      <point x="11" y="704" type="line"/>
      <point x="141" y="709" type="line"/>
      <point x="145" y="704" type="line"/>
      <point x="128" y="616" type="line" smooth="yes"/>
      <point x="121" y="578"/>
      <point x="122" y="578"/>
      <point x="175" y="564" type="curve"/>
      <point x="164" y="539" type="line"/>
      <point x="52" y="549" type="line"/>
      <point x="47" y="555" type="line"/>
      <point x="55" y="626" type="line" smooth="yes"/>
      <point x="60" y="673"/>
      <point x="46" y="673"/>
    </contour>
  </outline>
</glyph>
<glyph name="v_hook" format="1">
  <advance width="467"/>
  <outline>
    <contour>
      <point x="96.13" y="593" type="line"/>
      <point x="98.35" y="570.8" type="line"/>
      <point x="147.19" y="575.24"/>
      <point x="198.25" y="574.13"/>
      <point x="198.25" y="527.51" type="curve"/>
      <point x="198.25" y="510.86"/>
      <point x="187.15" y="498.65"/>
      <point x="170.5" y="473.12" type="curve"/>
      <point x="189.37" y="456.47" type="line"/>
      <point x="221.56" y="483.11"/>
      <point x="252.64" y="516.41"/>
      <point x="285.94" y="561.92" type="curve"/>
      <point x="297.04" y="641.84"/>
      <point x="244.87" y="671.81"/>
      <point x="168.28" y="671.81" type="curve"/>
    </contour>
    <component base="v"/>
    <contour>
      <point x="179.38" y="371" type="move" name="_top"/>
    </contour>
    <contour>
      <point x="179.38" y="721.76" type="move" name="top"/>
    </contour>
  </outline>
</glyph>
